<?xml version="1.0" encoding="UTF-8"?>
<svg version="1.1" xmlns="http://www.w3.org/2000/svg" width="973" height="973">
<path d="M0 0 C2.25982847 -0.00713853 4.51965522 -0.01484255 6.77947998 -0.02307129 C11.48552496 -0.03639537 16.19140258 -0.03814187 20.89746094 -0.03222656 C25.64251148 -0.02752945 30.38689162 -0.04129246 35.13183594 -0.07324219 C62.7936792 -0.25738726 89.57023212 0.27164186 116.796875 5.46875 C118.04998474 5.70314285 119.30309448 5.93753571 120.59417725 6.17903137 C152.01335967 12.116601 182.10300354 21.76567293 211.796875 33.46875 C213.72082615 34.2110055 215.64525557 34.95202334 217.5703125 35.69140625 C236.69135026 43.09659064 254.31328322 52.26911977 271.91796875 62.76708984 C274.59208756 64.34770451 277.28139621 65.89517251 279.984375 67.42578125 C290.3113427 73.27394306 300.16857111 79.53031454 309.796875 86.46875 C310.57095703 87.02498047 311.34503906 87.58121094 312.14257812 88.15429688 C321.03427573 94.56623818 329.77959582 101.07286653 338.12109375 108.19140625 C340.74309125 110.42297493 343.41826456 112.57137784 346.109375 114.71875 C357.85209377 124.34911001 368.55302941 135.1313293 379.296875 145.84375 C379.8154306 146.35962677 380.33398621 146.87550354 380.86825562 147.40701294 C390.98711441 157.486186 400.1205181 168.15784921 409.04980469 179.29345703 C410.18460442 180.70640639 411.32307594 182.11641745 412.46582031 183.52294922 C429.22107416 204.17719325 443.26491695 226.52895406 456.23681641 249.69970703 C457.58051861 252.08472587 458.94891694 254.45094745 460.33984375 256.80859375 C471.41003682 275.67900048 479.35978768 295.91294224 486.70507812 316.46386719 C487.64033772 319.03792243 488.61341657 321.58808314 489.625 324.1328125 C498.3898804 346.33818712 504.1866099 369.88327758 508.734375 393.28125 C508.94066528 394.3323848 508.94066528 394.3323848 509.15112305 395.40475464 C513.17285933 416.12983742 515.27395452 436.55768447 515.265625 457.671875 C515.27276353 459.93170347 515.28046755 462.19153022 515.28869629 464.45135498 C515.30202037 469.15739996 515.30376687 473.86327758 515.29785156 478.56933594 C515.29315445 483.31438648 515.30691746 488.05876662 515.33886719 492.80371094 C515.52301226 520.4655542 514.99398314 547.24210712 509.796875 574.46875 C509.56248215 575.72185974 509.32808929 576.97496948 509.08659363 578.26605225 C503.149024 609.68523467 493.49995207 639.77487854 481.796875 669.46875 C481.0546195 671.39270115 480.31360166 673.31713057 479.57421875 675.2421875 C472.16903436 694.36322526 462.99650523 711.98515822 452.49853516 729.58984375 C450.91792049 732.26396256 449.37045249 734.95327121 447.83984375 737.65625 C441.99168194 747.9832177 435.73531046 757.84044611 428.796875 767.46875 C428.24064453 768.24283203 427.68441406 769.01691406 427.11132812 769.81445312 C420.69938682 778.70615073 414.19275847 787.45147082 407.07421875 795.79296875 C404.84265007 798.41496625 402.69424716 801.09013956 400.546875 803.78125 C390.91651499 815.52396877 380.1342957 826.22490441 369.421875 836.96875 C368.90599823 837.4873056 368.39012146 838.00586121 367.85861206 838.54013062 C357.779439 848.65898941 347.10777579 857.7923931 335.97216797 866.72167969 C334.55921861 867.85647942 333.14920755 868.99495094 331.74267578 870.13769531 C311.08843175 886.89294916 288.73667094 900.93679195 265.56591797 913.90869141 C263.18089913 915.25239361 260.81467755 916.62079194 258.45703125 918.01171875 C239.58662452 929.08191182 219.35268276 937.03166268 198.80175781 944.37695312 C196.22770257 945.31221272 193.67754186 946.28529157 191.1328125 947.296875 C168.92743788 956.0617554 145.38234742 961.8584849 121.984375 966.40625 C121.28361847 966.54377686 120.58286194 966.68130371 119.86087036 966.82299805 C99.13578758 970.84473433 78.70794053 972.94582952 57.59375 972.9375 C55.33392153 972.94463853 53.07409478 972.95234255 50.81427002 972.96057129 C46.10822504 972.97389537 41.40234742 972.97564187 36.69628906 972.96972656 C31.95123852 972.96502945 27.20685838 972.97879246 22.46191406 973.01074219 C-5.1999292 973.19488726 -31.97648212 972.66585814 -59.203125 967.46875 C-61.08278961 967.11716072 -61.08278961 967.11716072 -63.00042725 966.75846863 C-94.41960967 960.820899 -124.50925354 951.17182707 -154.203125 939.46875 C-156.12707615 938.7264945 -158.05150557 937.98547666 -159.9765625 937.24609375 C-179.09760026 929.84090936 -196.71953322 920.66838023 -214.32421875 910.17041016 C-216.99833756 908.58979549 -219.68764621 907.04232749 -222.390625 905.51171875 C-232.7175927 899.66355694 -242.57482111 893.40718546 -252.203125 886.46875 C-252.97720703 885.91251953 -253.75128906 885.35628906 -254.54882812 884.78320312 C-263.44052573 878.37126182 -272.18584582 871.86463347 -280.52734375 864.74609375 C-283.14934125 862.51452507 -285.82451456 860.36612216 -288.515625 858.21875 C-300.25834377 848.58838999 -310.95927941 837.8061707 -321.703125 827.09375 C-322.2216806 826.57787323 -322.74023621 826.06199646 -323.27450562 825.53048706 C-333.39336441 815.451314 -342.5267681 804.77965079 -351.45605469 793.64404297 C-352.59085442 792.23109361 -353.72932594 790.82108255 -354.87207031 789.41455078 C-371.62732416 768.76030675 -385.67116695 746.40854594 -398.64306641 723.23779297 C-399.98676861 720.85277413 -401.35516694 718.48655255 -402.74609375 716.12890625 C-413.81628682 697.25849952 -421.76603768 677.02455776 -429.11132812 656.47363281 C-430.04658772 653.89957757 -431.01966657 651.34941686 -432.03125 648.8046875 C-440.7961304 626.59931288 -446.5928599 603.05422242 -451.140625 579.65625 C-451.34691528 578.6051152 -451.34691528 578.6051152 -451.55737305 577.53274536 C-455.57910933 556.80766258 -457.68020452 536.37981553 -457.671875 515.265625 C-457.67901353 513.00579653 -457.68671755 510.74596978 -457.69494629 508.48614502 C-457.70827037 503.78010004 -457.71001687 499.07422242 -457.70410156 494.36816406 C-457.69940445 489.62311352 -457.71316746 484.87873338 -457.74511719 480.13378906 C-457.92926226 452.4719458 -457.40023314 425.69539288 -452.203125 398.46875 C-451.96873215 397.21564026 -451.73433929 395.96253052 -451.49284363 394.67144775 C-445.555274 363.25226533 -435.90620207 333.16262146 -424.203125 303.46875 C-423.4608695 301.54479885 -422.71985166 299.62036943 -421.98046875 297.6953125 C-414.57528436 278.57427474 -405.40275523 260.95234178 -394.90478516 243.34765625 C-393.32417049 240.67353744 -391.77670249 237.98422879 -390.24609375 235.28125 C-384.39793194 224.9542823 -378.14156046 215.09705389 -371.203125 205.46875 C-370.64689453 204.69466797 -370.09066406 203.92058594 -369.51757812 203.12304688 C-363.10563682 194.23134927 -356.59900847 185.48602918 -349.48046875 177.14453125 C-347.24890007 174.52253375 -345.10049716 171.84736044 -342.953125 169.15625 C-333.32276499 157.41353123 -322.5405457 146.71259559 -311.828125 135.96875 C-311.31224823 135.4501944 -310.79637146 134.93163879 -310.26486206 134.39736938 C-300.185689 124.27851059 -289.51402579 115.1451069 -278.37841797 106.21582031 C-276.96546861 105.08102058 -275.55545755 103.94254906 -274.14892578 102.79980469 C-253.49468175 86.04455084 -231.14292094 72.00070805 -207.97216797 59.02880859 C-205.58714913 57.68510639 -203.22092755 56.31670806 -200.86328125 54.92578125 C-181.99287452 43.85558818 -161.75893276 35.90583732 -141.20800781 28.56054688 C-138.63395257 27.62528728 -136.08379186 26.65220843 -133.5390625 25.640625 C-111.33368788 16.8757446 -87.78859742 11.0790151 -64.390625 6.53125 C-63.68986847 6.39372314 -62.98911194 6.25619629 -62.26712036 6.11450195 C-41.54203758 2.09276567 -21.11419053 -0.00832952 0 0 Z " fill="#161616" transform="translate(457.203125,-0.46875)"/>
<path d="M0 0 C5.14127083 0.09019773 7.92280994 0.43200162 11.5625 4.1875 C12.13097656 4.82171875 12.69945312 5.4559375 13.28515625 6.109375 C14.92328487 7.91542113 16.60891341 9.40441421 18.5 10.9375 C21.74780015 13.66449478 24.43447571 16.69125061 27.171875 19.921875 C29.08661913 22.09846448 31.10744596 24.10657719 33.1875 26.125 C36.30673323 29.20844853 38.66012217 32.2708197 41 36 C43.01489917 38.78542298 45.0544939 41.55166641 47.09765625 44.31640625 C49.72603024 48.02419462 51.76658946 51.06635784 52.875 55.5 C53.72945952 59.09095976 53.72945952 59.09095976 56.33984375 61.29296875 C62.67932867 67.74416266 66.21859871 77.24144366 68 86 C68.48150447 87.50603899 68.98253143 89.00593632 69.5 90.5 C70.91283844 94.62376703 71.99747653 98.75855456 73 103 C73.66 103 74.32 103 75 103 C76.36660192 107.09980575 76.72934895 111.27981559 77.25 115.55078125 C77.62308665 118.50632709 78.05484206 121.16452618 79 124 C80.68208482 138.66113433 80.79166315 152.97348239 77.72265625 167.4140625 C77.11790317 170.41494535 76.725791 173.26672351 76.5 176.3125 C75.62128195 186.78681917 71.5508736 196.99554379 67.8203125 206.75390625 C66.43163809 210.55622905 65.20731388 214.41346861 63.96484375 218.265625 C63.1284751 220.63590053 62.18484274 222.78829355 61 225 C60.34 225 59.68 225 59 225 C58.8453125 226.3303125 58.8453125 226.3303125 58.6875 227.6875 C57.98187854 231.08731248 56.87063987 233.11609687 55 236 C54.67 236.99 54.34 237.98 54 239 C53.21625 239.763125 52.4325 240.52625 51.625 241.3125 C48.91538313 244.08663155 47.63083134 246.51595122 46 250 C45.46375 250.70125 44.9275 251.4025 44.375 252.125 C42.87260823 253.90428187 42.87260823 253.90428187 42.5625 256.0625 C42 258 42 258 40.1875 259.25 C37.40196625 261.478427 36.44873048 263.84150345 35.02734375 267.0625 C33.9330411 269.1262799 32.6426531 270.36176264 31 272 C29.79950593 275.10007201 29.79950593 275.10007201 29 278 C28.34 278 27.68 278 27 278 C26.8453125 279.1446875 26.8453125 279.1446875 26.6875 280.3125 C25.92350186 283.29903817 25.20250065 283.96692248 23 286 C22.566875 286.7425 22.13375 287.485 21.6875 288.25 C20.30387565 290.50479524 18.98749146 292.22878947 17.25 294.1875 C14.05027442 297.82499898 11.336499 301.7239586 8.59765625 305.71484375 C7.40404156 307.42209215 6.12751774 309.07190678 4.8125 310.6875 C2.97015886 313.03807317 1.63194471 315.49944836 0.203125 318.11328125 C-1.19098337 320.29949665 -2.80703367 322.09332754 -4.5625 324 C-6.89396621 326.56264535 -8.07372023 328.17628752 -9.4375 331.4375 C-11.32057588 335.73091302 -13.92199626 338.44839093 -17.16015625 341.7890625 C-19.098956 344.11891528 -19.94841425 346.18175019 -21 349 C-22.31266518 350.35368596 -23.64567325 351.68799596 -25 353 C-25.350625 353.70125 -25.70125 354.4025 -26.0625 355.125 C-27 357 -27 357 -30 359 C-30.4125 359.70125 -30.825 360.4025 -31.25 361.125 C-32.82296407 363.70915525 -34.41457747 365.64935389 -36.4375 367.875 C-39.09070674 370.83904268 -41.09997083 373.69577866 -42.96484375 377.19140625 C-44.95619242 380.67063052 -47.3022131 384.03243441 -50 387 C-50.66 387 -51.32 387 -52 387 C-52.12375 387.7425 -52.2475 388.485 -52.375 389.25 C-53.37197184 393.63667611 -54.19990962 395.46660641 -58 398 C-59.04839309 399.63665809 -60.03973743 401.31012617 -61 403 C-64.79779838 408.82053882 -64.79779838 408.82053882 -66.68359375 411.65234375 C-68.60407473 414.59449474 -70.26362802 417.44755887 -71.59765625 420.703125 C-72.82335267 423.58470656 -73.95371806 425.50709052 -75.9375 427.875 C-78.68661315 431.3794388 -80.4358757 434.87055696 -82.1328125 438.97265625 C-83.19837864 441.46377709 -84.59846202 443.68441551 -86 446 C-86.74311921 447.68009561 -87.48378567 449.36161597 -88.1875 451.05859375 C-89.06736817 453.16097106 -89.99967409 455.23536213 -90.9375 457.3125 C-91.62738173 458.87394987 -92.31483143 460.43647624 -93 462 C-93.34289062 462.77214844 -93.68578125 463.54429687 -94.0390625 464.33984375 C-96.49479036 470.12298913 -98.01557814 475.86935091 -99.2890625 482.01953125 C-100 485 -100 485 -101.046875 487.3046875 C-102.44455942 491.25715572 -102.46722847 495.14798901 -102.625 499.3125 C-102.66367187 500.14845703 -102.70234375 500.98441406 -102.7421875 501.84570312 C-102.83595159 503.89679259 -102.91904245 505.94836515 -103 508 C-103.66 508 -104.32 508 -105 508 C-105 508.66 -105 509.32 -105 510 C-111.19780681 509.61263707 -115.82965341 505.33144448 -119.89453125 500.96484375 C-121.07478055 499.58917191 -122.24691663 498.20649078 -123.41015625 496.81640625 C-125.38789042 494.55683282 -127.61716882 492.81847642 -130 491 C-131.68997323 489.35697047 -133.35216394 487.68528688 -135 486 C-135.67160156 485.37351562 -136.34320313 484.74703125 -137.03515625 484.1015625 C-143.09470328 478.34343376 -147.61748401 472.09927929 -152 465 C-152.52851563 464.14792969 -153.05703125 463.29585937 -153.6015625 462.41796875 C-154.90119358 460.17084126 -155.97989694 457.94699091 -157 455.5625 C-159.47993778 449.09768407 -159.47993778 449.09768407 -163.46655273 443.6237793 C-165.31576846 441.66563031 -166.02370473 439.91036201 -166.97265625 437.39453125 C-167.31490234 436.49283203 -167.65714844 435.59113281 -168.00976562 434.66210938 C-168.53086914 433.25155273 -168.53086914 433.25155273 -169.0625 431.8125 C-169.5894043 430.43094727 -169.5894043 430.43094727 -170.12695312 429.02148438 C-172.11664958 423.72189589 -173.69232419 418.50386219 -175 413 C-175.65548325 410.99630687 -176.32102589 408.99585536 -177 407 C-185.92640201 376.24854508 -185.36764103 340.07849565 -173.3671875 310.41796875 C-172.48758725 308.21896811 -171.6739936 305.99179501 -170.9453125 303.73828125 C-170 301 -170 301 -168 298 C-167.87625 296.88625 -167.7525 295.7725 -167.625 294.625 C-166.90448654 290.44602194 -165.63590843 289.23840179 -163 286 C-161.90432405 283.49793403 -160.95017735 280.97281158 -160.02734375 278.40234375 C-158.96661045 275.92192176 -157.64589157 274.12302503 -156 272 C-155.25660608 270.31928331 -154.51595722 268.63693271 -153.81640625 266.9375 C-152.93423939 264.84393654 -151.98883796 262.79535304 -151 260.75 C-150.690625 260.10546875 -150.38125 259.4609375 -150.0625 258.796875 C-149 257 -149 257 -147.46875 255.484375 C-145.69071423 253.86876188 -145.69071423 253.86876188 -144.5 250.5 C-143.14328669 247.33433561 -142.3545822 246.25220906 -140 244 C-139.690625 243.21625 -139.38125 242.4325 -139.0625 241.625 C-137.26879019 237.19348164 -134.65993681 234.50155198 -130.875 231.625 C-127.47946587 228.5247297 -127.05623555 226.38743998 -126 222 C-124.5 220.375 -124.5 220.375 -123 219 C-122.566875 217.824375 -122.566875 217.824375 -122.125 216.625 C-120.68497512 213.26494195 -118.64105048 211.52100273 -116 209 C-112.42710393 205.19008134 -109.78087365 201.96100517 -108 197 C-106.73012031 194.95912192 -105.38617389 192.96374635 -104 191 C-103.55527344 190.36835938 -103.11054688 189.73671875 -102.65234375 189.0859375 C-99.58881093 184.85417749 -96.2825088 181.21770588 -92.53125 177.58984375 C-90.60552716 175.59043253 -89.33890037 173.42277209 -88 171 C-86.67744688 169.32476605 -85.34294481 167.65893182 -84 166 C-83.12105892 164.73188922 -82.24617761 163.46095669 -81.375 162.1875 C-80.59125 161.135625 -79.8075 160.08375 -79 159 C-78.34 159 -77.68 159 -77 159 C-76.89300781 158.41734375 -76.78601563 157.8346875 -76.67578125 157.234375 C-75.90990175 154.70210289 -74.85419005 153.29222274 -73.1875 151.25 C-71.02713732 148.49154169 -69.34483814 145.86726936 -67.875 142.6875 C-66.37244876 139.46953609 -64.92812403 138.04968682 -62 136 C-61.731875 135.278125 -61.46375 134.55625 -61.1875 133.8125 C-59.97708908 130.94573729 -58.78889543 129.55881925 -56.6875 127.3125 C-53.37790987 123.67603677 -51.43859797 120.07270091 -49.37890625 115.640625 C-47.31184216 111.68216799 -44.61607369 108.25659797 -41.9375 104.6953125 C-39.26630073 100.97932964 -37.08811987 97.06581032 -35 93 C-34.34 93 -33.68 93 -33 93 C-32.731875 92.29875 -32.46375 91.5975 -32.1875 90.875 C-29.07987144 83.35126771 -29.07987144 83.35126771 -26.5234375 80.15234375 C-24.79517367 77.71061716 -23.98891893 75.46389749 -23.0625 72.625 C-21.54107362 68.23559747 -19.66617562 64.82151838 -17 61 C-16.29618843 59.01276732 -15.6288189 57.01222047 -15 55 C-14.484375 54.071875 -13.96875 53.14375 -13.4375 52.1875 C-11.84709205 48.66094324 -11.48376882 45.77276353 -11.2109375 41.953125 C-11 40 -11 40 -10 38 C-9.34 38 -8.68 38 -8 38 C-7.86722656 37.02417969 -7.73445312 36.04835937 -7.59765625 35.04296875 C-7.33275391 33.13451172 -7.33275391 33.13451172 -7.0625 31.1875 C-6.88847656 29.92292969 -6.71445312 28.65835938 -6.53515625 27.35546875 C-6 24 -6 24 -5 21 C-4.80424296 17.25451521 -4.6823988 13.51071704 -4.57421875 9.76171875 C-3.8986721 5.33619889 -2.700029 3.47608524 0 0 Z " fill="#A3A3A3" transform="translate(468,183)"/>
<path d="M0 0 C4.09789669 0.37943488 6.53958935 0.69305957 10 3 C10.87890625 4.83984375 10.87890625 4.83984375 11.5625 6.9375 C12.49056247 9.74266058 13.31562448 11.47343672 15 14 C15.44429438 16.04869074 15.81294195 18.11454293 16.125 20.1875 C16.29257812 21.27417969 16.46015625 22.36085938 16.6328125 23.48046875 C16.75398437 24.31191406 16.87515625 25.14335937 17 26 C17.99 26.33 18.98 26.66 20 27 C20.84375 29.29296875 20.84375 29.29296875 21.5 32.1875 C22.29695531 35.43790936 23.01010462 38.01940086 24.5625 41 C26.34440669 44.71876179 26.82142497 48.25108962 27.375 52.31640625 C27.85983867 55.05814411 27.85983867 55.05814411 29.46484375 57.33203125 C31.45091425 60.78364996 31.96561271 64.24699853 32.5625 68.125 C33.42502743 73.84572242 33.42502743 73.84572242 36 79 C36.43896484 80.89428711 36.43896484 80.89428711 36.7109375 83.02734375 C36.81937988 83.81270508 36.92782227 84.59806641 37.03955078 85.40722656 C37.15024902 86.2422168 37.26094727 87.07720703 37.375 87.9375 C38.15836837 93.47578022 38.99602958 98.54327886 41.125 103.75 C44.49450578 113.02257126 43.86867233 123.25759988 44 133 C44.02046387 134.03479492 44.04092773 135.06958984 44.06201172 136.13574219 C44.27619256 147.51033816 44.12556376 158.7875115 43.125 170.125 C43.04660889 171.01904541 42.96821777 171.91309082 42.88745117 172.83422852 C42.39392843 177.77371452 41.52406759 182.27410974 40 187 C39.34 187 38.68 187 38 187 C37.97421875 187.7734375 37.9484375 188.546875 37.921875 189.34375 C37.59486097 195.34891672 37.00395686 199.88951467 33.98828125 205.109375 C32.34246693 208.25788936 31.74136369 211.54030277 31 215 C30.34 215 29.68 215 29 215 C28.7525 215.99 28.505 216.98 28.25 218 C25.31992737 227.95828737 18.66302928 238.37558229 11.28125 245.70703125 C9.68853173 247.15517184 9.68853173 247.15517184 8.5625 250.375 C7.02534515 253.94119925 5.54425078 256.10238105 3 259 C2.45988281 259.63035156 1.91976562 260.26070312 1.36328125 260.91015625 C-1.95475866 264.76080994 -5.35607469 268.45196746 -9 272 C-9.825 272.845625 -10.65 273.69125 -11.5 274.5625 C-13.89178403 276.89448943 -16.39394339 278.91515471 -19 281 C-19.721875 281.7425 -20.44375 282.485 -21.1875 283.25 C-27.1830521 289.11231761 -34.10674246 295.61511579 -42.3125 297.9375 C-45.92065388 298.97713756 -48.90499051 300.34964497 -52.203125 302.09765625 C-54 303 -54 303 -57 304 C-57 304.99 -57 305.98 -57 307 C-57.58007812 307.25394531 -58.16015625 307.50789063 -58.7578125 307.76953125 C-62.26239423 309.31362914 -65.72587689 310.85745598 -69.125 312.625 C-72.35224948 314.16846714 -75.55873927 315.03403208 -79 316 C-80.06605469 316.495 -81.13210938 316.99 -82.23046875 317.5 C-86.02070551 319.15311901 -89.78077953 319.65020252 -93.875 320 C-98.17827691 320.3719925 -101.93303334 320.91134498 -105.96240234 322.51855469 C-111.85552349 324.52240083 -117.56484264 324.39489035 -123.734375 324.328125 C-124.93056458 324.32625183 -126.12675415 324.32437866 -127.35919189 324.32244873 C-129.8737672 324.31575699 -132.38833261 324.30190032 -134.90283203 324.28125 C-138.75172605 324.24998598 -142.60021007 324.24026258 -146.44921875 324.234375 C-148.8984425 324.22520817 -151.34766208 324.21483343 -153.796875 324.203125 C-154.94589294 324.19887512 -156.09491089 324.19462524 -157.27874756 324.19024658 C-158.88631927 324.17583527 -158.88631927 324.17583527 -160.52636719 324.16113281 C-161.93459747 324.15089081 -161.93459747 324.15089081 -163.37127686 324.14044189 C-170.28828527 323.77089451 -170.28828527 323.77089451 -172.78515625 321.06640625 C-174.52739707 316.66878876 -174.48804401 312.62856436 -174.4375 307.9375 C-174.43282715 306.9988208 -174.4281543 306.0601416 -174.42333984 305.09301758 C-174.26754847 297.75879033 -172.80459599 291.77417801 -170 285 C-169.59455516 283.48699851 -169.21596089 281.96632461 -168.875 280.4375 C-168 277 -168 277 -166 274 C-165.34 274 -164.68 274 -164 274 C-163.89042969 273.33613281 -163.78085937 272.67226563 -163.66796875 271.98828125 C-162.76645479 266.9676547 -161.77151648 263.3235657 -159 259 C-158.47046559 257.51017004 -157.97316555 256.00867968 -157.5 254.5 C-156.38714856 250.96917292 -154.91913859 248.17075071 -153 245 C-152.71125 243.906875 -152.4225 242.81375 -152.125 241.6875 C-150.78219153 237.28607224 -148.78505152 233.65984334 -146 230 C-145.34 229.67 -144.68 229.34 -144 229 C-143.27343952 227.01847141 -142.5491285 225.03604238 -141.84375 223.046875 C-140.69439655 220.25862866 -138.94728682 218.29092568 -137 216 C-134.65815898 212.46186248 -132.46343767 208.85272531 -130.4375 205.125 C-129 203 -129 203 -126.875 202 C-126.25625 201.67 -125.6375 201.34 -125 201 C-124.86078125 200.24203125 -124.7215625 199.4840625 -124.578125 198.703125 C-123.91470495 195.60118802 -122.88163859 194.17956242 -120.875 191.75 C-119.92753906 190.58017578 -119.92753906 190.58017578 -118.9609375 189.38671875 C-118.31382812 188.59910156 -117.66671875 187.81148437 -117 187 C-112.69733282 181.58849568 -108.6128464 176.0775233 -104.67578125 170.39453125 C-102.20407267 166.86269591 -99.60480506 163.43416517 -97 160 C-89.45242863 149.98820291 -82.05095562 139.8800696 -74.75 129.6875 C-74.33758057 129.11273926 -73.92516113 128.53797852 -73.50024414 127.94580078 C-71.6257621 125.32251469 -69.78852019 122.68278028 -68 120 C-65.81516891 116.72275337 -63.54571773 113.51231931 -61.25 110.3125 C-60.599104 109.40274414 -60.599104 109.40274414 -59.93505859 108.47460938 C-57.18454131 104.63536664 -54.41090995 100.81367073 -51.625 97 C-47.18881988 90.90468851 -43.17224315 84.67792869 -39.3671875 78.171875 C-38 76 -38 76 -36 74 C-35.690625 73.21625 -35.38125 72.4325 -35.0625 71.625 C-33.99464757 68.98677636 -32.708437 67.25513684 -31 65 C-29.98063057 63.00980253 -28.98537521 61.0072458 -28 59 C-27.04748756 57.24682493 -26.08851983 55.49714977 -25.125 53.75 C-22.6637752 49.26727294 -20.35052236 44.73089201 -18.08984375 40.14453125 C-17.25283965 38.49752319 -16.33092595 36.89345445 -15.375 35.3125 C-13.60091886 32.32881808 -12.33807382 29.19974173 -11 26 C-10.443125 25.01 -10.443125 25.01 -9.875 24 C-8.80235765 21.83529804 -8.80235765 21.83529804 -8.6875 18.5625 C-8 15 -8 15 -5.5625 12.625 C-2.4511634 9.43777714 -2.06847888 7.17361244 -1.359375 2.890625 C-1 1 -1 1 0 0 Z " fill="#A3A3A3" transform="translate(606,404)"/>
<path d="M0 0 C5.14127083 0.09019773 7.92280994 0.43200162 11.5625 4.1875 C12.13097656 4.82171875 12.69945312 5.4559375 13.28515625 6.109375 C14.92328487 7.91542113 16.60891341 9.40441421 18.5 10.9375 C21.74780015 13.66449478 24.43447571 16.69125061 27.171875 19.921875 C29.08661913 22.09846448 31.10744596 24.10657719 33.1875 26.125 C36.30673323 29.20844853 38.66012217 32.2708197 41 36 C43.01489917 38.78542298 45.0544939 41.55166641 47.09765625 44.31640625 C49.72603024 48.02419462 51.76658946 51.06635784 52.875 55.5 C53.72945952 59.09095976 53.72945952 59.09095976 56.33984375 61.29296875 C62.67932867 67.74416266 66.21859871 77.24144366 68 86 C68.48150447 87.50603899 68.98253143 89.00593632 69.5 90.5 C70.91283844 94.62376703 71.99747653 98.75855456 73 103 C73.66 103 74.32 103 75 103 C76.00496852 106.01490557 76.10335303 108.04181692 76.0625 111.1875 C76.05347656 112.08855469 76.04445313 112.98960937 76.03515625 113.91796875 C76.01775391 114.94857422 76.01775391 114.94857422 76 116 C75.67 116 75.34 116 75 116 C74.72736328 114.948125 74.72736328 114.948125 74.44921875 113.875 C73.10942447 108.81813542 71.67048059 103.90966274 69.75390625 99.04296875 C68.57447724 95.84689946 67.66988708 92.5745146 66.74609375 89.296875 C66.01769007 87.05445949 65.06073235 85.09990511 64 83 C63.5978125 81.4221875 63.5978125 81.4221875 63.1875 79.8125 C61.32713622 73.83975312 58.50322016 68.80386419 54.5 64 C50.69265236 59.43118283 48.08233958 54.30585388 45.5625 48.9375 C43.03693566 44.18943903 39.65695957 40.07887057 36.3125 35.8828125 C35 34 35 34 35 32 C33.515 31.505 33.515 31.505 32 31 C27.9234502 27.27286875 24.38199926 23.06257658 20.76953125 18.890625 C19.13136012 16.92091997 19.13136012 16.92091997 17 16 C17 15.34 17 14.68 17 14 C16.34 14 15.68 14 15 14 C15 13.34 15 12.68 15 12 C14.01 12 13.02 12 12 12 C9.8125 10.125 9.8125 10.125 8 8 C8 7.34 8 6.68 8 6 C4.70924004 6.37904208 4.70924004 6.37904208 2 8 C1.7185693 9.80788634 1.47666244 11.62193387 1.25 13.4375 C0.40476554 19.19526255 -0.87251716 24.70890803 -2.4375 30.3125 C-2.6427832 31.05234131 -2.84806641 31.79218262 -3.05957031 32.55444336 C-4.46608515 37.47669501 -6.16210374 42.22248513 -8 47 C-8.67735217 48.99640639 -9.34838935 50.99504414 -10 53 C-10.66 53 -11.32 53 -12 53 C-13.46974448 57.2328641 -14.86969598 61.34847989 -15.75 65.75 C-16.95787638 70.8454113 -19.65603194 75.19990853 -22.19140625 79.73828125 C-24.21728264 83.39185962 -26.05540465 87.11216535 -27.859375 90.87890625 C-29.06659205 93.12383385 -30.33539756 95.06818507 -32 97 C-32.66 97 -33.32 97 -34 97 C-34.144375 97.598125 -34.28875 98.19625 -34.4375 98.8125 C-35.680934 103.64807667 -37.4820878 105.4820878 -41 109 C-44.07072984 112.73999147 -46.84166044 116.57745377 -49.1875 120.8125 C-50.70849527 123.48735376 -51.89879024 124.89879024 -54 127 C-55.01847486 128.99065541 -56.01517978 130.99248185 -57 133 C-59.66352715 137.88313311 -61.74867159 141.59939273 -67 144 C-66.75 141.6875 -66.75 141.6875 -66 139 C-64.68212715 137.97971135 -63.34789347 136.98028616 -62 136 C-61.731875 135.278125 -61.46375 134.55625 -61.1875 133.8125 C-59.97708908 130.94573729 -58.78889543 129.55881925 -56.6875 127.3125 C-53.37790987 123.67603677 -51.43859797 120.07270091 -49.37890625 115.640625 C-47.31184216 111.68216799 -44.61607369 108.25659797 -41.9375 104.6953125 C-39.26630073 100.97932964 -37.08811987 97.06581032 -35 93 C-34.34 93 -33.68 93 -33 93 C-32.731875 92.29875 -32.46375 91.5975 -32.1875 90.875 C-29.07987144 83.35126771 -29.07987144 83.35126771 -26.5234375 80.15234375 C-24.79517367 77.71061716 -23.98891893 75.46389749 -23.0625 72.625 C-21.54107362 68.23559747 -19.66617562 64.82151838 -17 61 C-16.29618843 59.01276732 -15.6288189 57.01222047 -15 55 C-14.484375 54.071875 -13.96875 53.14375 -13.4375 52.1875 C-11.84709205 48.66094324 -11.48376882 45.77276353 -11.2109375 41.953125 C-11 40 -11 40 -10 38 C-9.34 38 -8.68 38 -8 38 C-7.80083984 36.53626953 -7.80083984 36.53626953 -7.59765625 35.04296875 C-7.42105469 33.77066406 -7.24445313 32.49835938 -7.0625 31.1875 C-6.88847656 29.92292969 -6.71445312 28.65835938 -6.53515625 27.35546875 C-6 24 -6 24 -5 21 C-4.80424296 17.25451521 -4.6823988 13.51071704 -4.57421875 9.76171875 C-3.8986721 5.33619889 -2.700029 3.47608524 0 0 Z " fill="#4D4D4D" transform="translate(468,183)"/>
<path d="M0 0 C0.6875 1.625 0.6875 1.625 1 4 C-0.3125 7 -0.3125 7 -2 10 C-2.33 10.7425 -2.66 11.485 -3 12.25 C-4 14 -4 14 -7 16 C-7.75210864 17.70041953 -8.49862574 19.40425449 -9.18359375 21.1328125 C-10.43480122 23.99442577 -12.22116122 26.44291925 -14 29 C-14.53625 29.9075 -15.0725 30.815 -15.625 31.75 C-17 34 -17 34 -19 36 C-19.65656398 37.62564094 -20.25236552 39.27616497 -20.8125 40.9375 C-26.58019246 57.29009623 -26.58019246 57.29009623 -30 59 C-30.8993083 60.92614202 -30.8993083 60.92614202 -31.6875 63.375 C-32.90647423 66.95431009 -34.17908949 70.46671621 -35.67578125 73.9375 C-47.10723481 101.22777819 -47.70244814 133.03362156 -41.4296875 161.6953125 C-40.95973803 164.21595057 -40.75213055 166.69378013 -40.5625 169.25 C-40.29282465 172.41745955 -40.00031867 173.99938922 -38.5 176.875 C-36.18661066 181.69456111 -36.24800295 186.71497157 -36 192 C-37.85268687 189.22096969 -38.60833448 187.34225139 -39.5 184.1875 C-40.28292412 181.44301055 -41.09090274 178.7294223 -42 176.0234375 C-52.31362221 144.84084534 -51.64231313 106.75737991 -39.3671875 76.41796875 C-38.48758725 74.21896811 -37.6739936 71.99179501 -36.9453125 69.73828125 C-36 67 -36 67 -34 64 C-33.87625 62.88625 -33.7525 61.7725 -33.625 60.625 C-32.90448654 56.44602194 -31.63590843 55.23840179 -29 52 C-27.90432405 49.49793403 -26.95017735 46.97281158 -26.02734375 44.40234375 C-24.96661045 41.92192176 -23.64589157 40.12302503 -22 38 C-21.25660608 36.31928331 -20.51595722 34.63693271 -19.81640625 32.9375 C-18.93423939 30.84393654 -17.98883796 28.79535304 -17 26.75 C-16.690625 26.10546875 -16.38125 25.4609375 -16.0625 24.796875 C-15 23 -15 23 -13.46875 21.484375 C-11.69071423 19.86876188 -11.69071423 19.86876188 -10.5 16.5 C-9.14328669 13.33433561 -8.3545822 12.25220906 -6 10 C-5.690625 9.21625 -5.38125 8.4325 -5.0625 7.625 C-3.83346 4.58854822 -2.12162447 2.47522855 0 0 Z " fill="#696969" transform="translate(334,417)"/>
<path d="M0 0 C3.32957948 2.59980864 3.61761712 5.11064555 4.1875 9.1875 C4.42533203 10.81751953 4.42533203 10.81751953 4.66796875 12.48046875 C4.77753906 13.31191406 4.88710938 14.14335937 5 15 C5.99 15.33 6.98 15.66 8 16 C8.84375 18.29296875 8.84375 18.29296875 9.5 21.1875 C10.29695531 24.43790936 11.01010462 27.01940086 12.5625 30 C14.34440669 33.71876179 14.82142497 37.25108962 15.375 41.31640625 C15.85983867 44.05814411 15.85983867 44.05814411 17.46484375 46.33203125 C19.45091425 49.78364996 19.96561271 53.24699853 20.5625 57.125 C21.42502743 62.84572242 21.42502743 62.84572242 24 68 C24.43896484 69.89428711 24.43896484 69.89428711 24.7109375 72.02734375 C24.81937988 72.81270508 24.92782227 73.59806641 25.03955078 74.40722656 C25.20559814 75.65971191 25.20559814 75.65971191 25.375 76.9375 C26.15836837 82.47578022 26.99602958 87.54327886 29.125 92.75 C32.49450578 102.02257126 31.86867233 112.25759988 32 122 C32.02046387 123.03479492 32.04092773 124.06958984 32.06201172 125.13574219 C32.27619256 136.51033816 32.12556376 147.7875115 31.125 159.125 C31.04660889 160.01904541 30.96821777 160.91309082 30.88745117 161.83422852 C30.39392843 166.77371452 29.52406759 171.27410974 28 176 C27.34 176 26.68 176 26 176 C25.67 179.96 25.34 183.92 25 188 C24.67 188 24.34 188 24 188 C23.72027162 182.12570408 24.10828224 177.72223252 26.24609375 172.23828125 C27.85644694 167.45728449 28.12949475 162.67489766 28.16113281 157.66259766 C28.17074036 156.427565 28.1803479 155.19253235 28.19024658 153.92007446 C28.19509503 152.58473904 28.19937374 151.24940145 28.203125 149.9140625 C28.20595238 149.23449871 28.20877975 148.55493492 28.21169281 147.85477829 C28.22663058 144.25995248 28.23589476 140.66516625 28.24023438 137.0703125 C28.24571769 133.37628623 28.26975793 129.68262876 28.29820633 125.98871803 C28.31691502 123.13008593 28.32204261 120.27154137 28.32357025 117.41285324 C28.3280302 115.39446481 28.34663149 113.3761234 28.36553955 111.3578186 C28.34882579 104.4445452 27.84195932 99.3025328 25 93 C24.53244394 90.25850915 24.32745307 87.52219759 24.125 84.75 C23.51390179 78.17212745 22.0168286 73.07323977 19.16796875 67.06640625 C17.29492996 62.14889638 16.93784862 57.17205044 16.45703125 51.95703125 C16.30621094 50.98121094 16.15539062 50.00539063 16 49 C15.34 48.67 14.68 48.34 14 48 C13.2805714 44.70042171 12.73951896 41.4147638 12.23242188 38.078125 C11.50459852 33.70314264 10.41314759 30.78570509 8 27 C7.26953125 24.32421875 7.26953125 24.32421875 6.8125 21.6875 C6.65394531 20.80449219 6.49539063 19.92148437 6.33203125 19.01171875 C6.22246094 18.34785156 6.11289062 17.68398438 6 17 C5.34 17 4.68 17 4 17 C3.51933465 15.10454608 3.04053257 13.20861961 2.5625 11.3125 C2.29566406 10.25675781 2.02882813 9.20101563 1.75390625 8.11328125 C1.10102068 5.4171683 0.52058807 2.7242424 0 0 Z " fill="#595959" transform="translate(618,415)"/>
<path d="M0 0 C1.78243584 4.16981961 0.05662953 7.83068783 -1.3125 11.875 C-1.53873047 12.56980469 -1.76496094 13.26460937 -1.99804688 13.98046875 C-2.65485745 15.99064981 -3.32528745 17.99576687 -4 20 C-4.36222656 21.08796875 -4.72445312 22.1759375 -5.09765625 23.296875 C-5.54431641 24.63492188 -5.54431641 24.63492188 -6 26 C-6.37125 27.11375 -6.7425 28.2275 -7.125 29.375 C-7.41375 30.24125 -7.7025 31.1075 -8 32 C-8.66 32 -9.32 32 -10 32 C-11.46974448 36.2328641 -12.86969598 40.34847989 -13.75 44.75 C-14.95787638 49.8454113 -17.65603194 54.19990853 -20.19140625 58.73828125 C-22.21728264 62.39185962 -24.05540465 66.11216535 -25.859375 69.87890625 C-27.06659205 72.12383385 -28.33539756 74.06818507 -30 76 C-30.66 76 -31.32 76 -32 76 C-32.144375 76.598125 -32.28875 77.19625 -32.4375 77.8125 C-33.680934 82.64807667 -35.4820878 84.4820878 -39 88 C-42.07072984 91.73999147 -44.84166044 95.57745377 -47.1875 99.8125 C-48.70849527 102.48735376 -49.89879024 103.89879024 -52 106 C-53.01847486 107.99065541 -54.01517978 109.99248185 -55 112 C-57.66352715 116.88313311 -59.74867159 120.59939273 -65 123 C-64.75 120.6875 -64.75 120.6875 -64 118 C-62.68212715 116.97971135 -61.34789347 115.98028616 -60 115 C-59.731875 114.278125 -59.46375 113.55625 -59.1875 112.8125 C-57.97708908 109.94573729 -56.78889543 108.55881925 -54.6875 106.3125 C-51.37790987 102.67603677 -49.43859797 99.07270091 -47.37890625 94.640625 C-45.31184216 90.68216799 -42.61607369 87.25659797 -39.9375 83.6953125 C-37.26630073 79.97932964 -35.08811987 76.06581032 -33 72 C-32.34 72 -31.68 72 -31 72 C-30.731875 71.29875 -30.46375 70.5975 -30.1875 69.875 C-27.07987144 62.35126771 -27.07987144 62.35126771 -24.5234375 59.15234375 C-22.79517367 56.71061716 -21.98891893 54.46389749 -21.0625 51.625 C-19.54107362 47.23559747 -17.66617562 43.82151838 -15 40 C-14.27954236 38.0187415 -13.61998741 36.01495907 -13 34 C-12.40949693 32.45304829 -11.8037273 30.91188561 -11.1875 29.375 C-10.84460938 28.5190625 -10.50171875 27.663125 -10.1484375 26.78125 C-9.34424956 24.83369281 -8.51382207 22.89685942 -7.6640625 20.96875 C-5.14673904 15.20655294 -3.3631685 10.2949207 -3 4 C-2.34 4 -1.68 4 -1 4 C-0.67 2.68 -0.34 1.36 0 0 Z " fill="#757575" transform="translate(466,204)"/>
<path d="M0 0 C0 3.29342839 -0.37905113 3.91750479 -2.1953125 6.51171875 C-2.66138916 7.18396484 -3.12746582 7.85621094 -3.60766602 8.54882812 C-4.10838623 9.25458984 -4.60910645 9.96035156 -5.125 10.6875 C-5.62765381 11.40486328 -6.13030762 12.12222656 -6.64819336 12.86132812 C-8.09092913 14.91326042 -9.54403089 16.95744585 -11 19 C-11.65871094 19.93457031 -12.31742187 20.86914062 -12.99609375 21.83203125 C-14.27232771 23.59838997 -15.62582939 25.3087131 -17 27 C-17.66 27 -18.32 27 -19 27 C-19.33 28.32 -19.66 29.64 -20 31 C-20.66 31 -21.32 31 -22 31 C-22.309375 32.2375 -22.309375 32.2375 -22.625 33.5 C-24.37688985 37.95935597 -27.01010465 41.29553846 -30 45 C-30.66 44.34 -31.32 43.68 -32 43 C-32.74765625 43.91523438 -33.4953125 44.83046875 -34.265625 45.7734375 C-35.26005466 46.97425822 -36.25486643 48.17476256 -37.25 49.375 C-37.74113281 49.97828125 -38.23226563 50.5815625 -38.73828125 51.203125 C-43.30164195 56.67915784 -43.30164195 56.67915784 -47 58 C-43.93855834 52.27116363 -40.29235181 47.32320014 -36.25 42.25 C-32.26048363 37.19647539 -28.32832251 32.14227544 -24.625 26.875 C-20.08201091 20.55347901 -14.73584293 15.4495594 -8.8125 10.4375 C-5.16235878 7.31292152 -2.6228658 4.01626326 0 0 Z " fill="#2B2B2B" transform="translate(406,296)"/>
<path d="M0 0 C-0.58007812 0.25394531 -1.16015625 0.50789062 -1.7578125 0.76953125 C-5.26239423 2.31362914 -8.72587689 3.85745598 -12.125 5.625 C-15.35224948 7.16846714 -18.55873927 8.03403208 -22 9 C-23.06605469 9.495 -24.13210938 9.99 -25.23046875 10.5 C-29.02070551 12.15311901 -32.78077953 12.65020252 -36.875 13 C-41.17827691 13.3719925 -44.93303334 13.91134498 -48.96240234 15.51855469 C-54.85552349 17.52240083 -60.56484264 17.39489035 -66.734375 17.328125 C-68.52865936 17.32531525 -68.52865936 17.32531525 -70.35919189 17.32244873 C-72.8737672 17.31575699 -75.38833261 17.30190032 -77.90283203 17.28125 C-81.75172605 17.24998598 -85.60021007 17.24026258 -89.44921875 17.234375 C-91.8984425 17.22520817 -94.34766208 17.21483343 -96.796875 17.203125 C-97.94589294 17.19887512 -99.09491089 17.19462524 -100.27874756 17.19024658 C-101.35046204 17.18063904 -102.42217651 17.17103149 -103.52636719 17.16113281 C-104.46518738 17.15430481 -105.40400757 17.14747681 -106.37127686 17.14044189 C-109.0021709 16.99988402 -111.4338416 16.58262066 -114 16 C-114 15.34 -114 14.68 -114 14 C-112.35547852 14.23771118 -112.35547852 14.23771118 -110.67773438 14.48022461 C-105.50850569 15.123685 -100.36011924 15.22627327 -95.15625 15.31640625 C-94.14655151 15.33718735 -93.13685303 15.35796844 -92.09655762 15.37937927 C-88.8977687 15.44432466 -85.69890358 15.50350185 -82.5 15.5625 C-80.32030489 15.60573764 -78.14061724 15.64935353 -75.9609375 15.69335938 C-70.64070358 15.79994898 -65.32039528 15.90181348 -60 16 C-60 15.34 -60 14.68 -60 14 C-53.15329921 11.28242705 -46.67384841 9.68313151 -39.375 9 C-33.49217398 8.44145875 -28.63420104 7.4490313 -23.21875 4.9453125 C-20.16249058 3.6431738 -17.07387743 3.06292855 -13.8125 2.4921875 C-11.76641125 2.09780387 -11.76641125 2.09780387 -10 0 C-6.25591431 -0.89532484 -3.6700919 -1.05654161 0 0 Z " fill="#818181" transform="translate(549,711)"/>
<path d="M0 0 C0.33 0 0.66 0 1 0 C1.19678989 4.91974735 0.81555192 9.39114841 0 14.25 C-2.57089511 31.40154308 -1.12376092 48.81623858 2.5703125 65.6953125 C3.04026197 68.21595057 3.24786945 70.69378013 3.4375 73.25 C3.70717535 76.41745955 3.99968133 77.99938922 5.5 80.875 C7.81338934 85.69456111 7.75199705 90.71497157 8 96 C6.14731313 93.22096969 5.39166552 91.34225139 4.5 88.1875 C3.71707588 85.44301055 2.90909726 82.7294223 2 80.0234375 C-3.45006791 63.54549779 -4.16726354 46.2064288 -4.35147095 28.98138428 C-4.37437838 26.9914977 -4.41388689 25.001824 -4.45385742 23.01220703 C-4.46949628 14.62438894 -3.1871318 7.76558658 0 0 Z " fill="#929292" transform="translate(290,513)"/>
<path d="M0 0 C0.495 1.485 0.495 1.485 1 3 C0.34 3 -0.32 3 -1 3 C-1.25763626 3.59519943 -1.51527252 4.19039886 -1.78071594 4.80363464 C-3.1091675 7.19664959 -4.39912539 8.41668623 -6.50854492 10.1418457 C-11.55492476 14.41744895 -16.19392823 19.05022647 -20.86328125 23.73046875 C-21.77708054 24.64331131 -22.69087982 25.55615387 -23.63237 26.49665833 C-25.5508911 28.41371727 -27.46762259 30.33254232 -29.38305664 32.25268555 C-31.83183505 34.70719281 -34.28512061 37.15713856 -36.73974323 39.60579967 C-39.09585633 41.95742662 -41.44814852 44.3128599 -43.80078125 46.66796875 C-44.67889969 47.54406296 -45.55701813 48.42015717 -46.46174622 49.32279968 C-47.27656967 50.1407753 -48.09139313 50.95875092 -48.9309082 51.80151367 C-50.00390923 52.87570808 -50.00390923 52.87570808 -51.09858704 53.97160339 C-53.04699637 55.96300002 -53.04699637 55.96300002 -54.62931824 58.2624054 C-55.30780571 59.12251472 -55.30780571 59.12251472 -56 60 C-56.66 60 -57.32 60 -58 60 C-58 60.66 -58 61.32 -58 62 C-58.99 61.67 -59.98 61.34 -61 61 C-59.82244141 59.7315625 -59.82244141 59.7315625 -58.62109375 58.4375 C-57.55983839 57.29171987 -56.49864376 56.14588349 -55.4375 55 C-54.92380859 54.44699219 -54.41011719 53.89398438 -53.88085938 53.32421875 C-51.17377223 50.39854693 -48.52204162 47.44467247 -45.9375 44.41015625 C-41.01920168 38.76495887 -35.67663479 33.52759096 -30.37573242 28.24536133 C-28.56639067 26.44137915 -26.76245681 24.63211335 -24.95898438 22.82226562 C-19.14353169 17.00335928 -13.30983866 11.28859845 -7 6 C-5.66598994 4.8549546 -4.33263961 3.70914009 -3 2.5625 C-2.01 1.716875 -1.02 0.87125 0 0 Z " fill="#080808" transform="translate(172,111)"/>
<path d="M0 0 C0.66 0.33 1.32 0.66 2 1 C1.2265625 2.02738281 0.453125 3.05476563 -0.34375 4.11328125 C-6.29593274 12.02842807 -12.20561099 19.96827573 -18 28 C-19.04409399 29.44153435 -20.08838139 30.88292863 -21.1328125 32.32421875 C-29.64334257 44.0760401 -37.99396097 55.89736438 -46 68 C-47 66 -47 66 -46.4375 63.875 C-44.78358914 60.56717827 -42.72799041 57.85658789 -40.4375 54.96484375 C-39.03445453 53.04709409 -37.9969187 51.15200239 -37 49 C-37.99 49 -38.98 49 -40 49 C-39.29101562 48.31421875 -38.58203125 47.6284375 -37.8515625 46.921875 C-34.26549692 43.3383366 -31.1167937 39.4013506 -27.9296875 35.46484375 C-24.32403274 31.10801091 -24.32403274 31.10801091 -21 30 C-20.74863281 29.175 -20.49726563 28.35 -20.23828125 27.5 C-18.4936091 22.56868691 -15.4423883 19.04607653 -12.1875 15 C-11.57068359 14.21882813 -10.95386719 13.43765625 -10.31835938 12.6328125 C-6.94101314 8.36895774 -3.50176579 4.16209877 0 0 Z " fill="#262626" transform="translate(367,349)"/>
<path d="M0 0 C0 5.55903255 -4.58272911 9.84670153 -8 14 C-9.9487898 15.88247937 -11.95805398 17.60210002 -14.0546875 19.31640625 C-16.74659464 21.64614918 -18.98210036 24.28132102 -21.26171875 27.0078125 C-25.31158287 31.64922981 -29.71269336 35.45759299 -34.625 39.125 C-38.83976418 42.21891853 -38.83976418 42.21891853 -42.66796875 45.76171875 C-44.99153051 47.92174537 -47.95829608 47.7130468 -51 48 C-48.34225943 44.01338914 -45.50082432 42.50027477 -41 41 C-41 40.34 -41 39.68 -41 39 C-40.34 39 -39.68 39 -39 39 C-38.67 38.01 -38.34 37.02 -38 36 C-36.5390625 34.7109375 -36.5390625 34.7109375 -34.625 33.375 C-22.9859261 24.92728507 -13.46204969 16.19720813 -5.640625 4.06640625 C-3.90607068 1.88169379 -2.56554665 1.02064138 0 0 Z " fill="#767676" transform="translate(614,653)"/>
<path d="M0 0 C0.33 0 0.66 0 1 0 C1.61898787 7.18025931 1.61898787 7.18025931 -1.3125 11.0625 C-2.199375 12.031875 -3.08625 13.00125 -4 14 C-5.06652192 16.30368736 -6.06421005 18.64018187 -7 21 C-7.64927365 22.42472194 -8.31636081 23.8414453 -9 25.25 C-9.309375 25.89453125 -9.61875 26.5390625 -9.9375 27.203125 C-11.07763685 29.13129761 -12.41617771 30.42881459 -14 32 C-14.495 33.010625 -14.99 34.02125 -15.5 35.0625 C-17 38 -17 38 -20 40 C-21.05226728 41.97300116 -22.04788888 43.97676387 -23 46 C-25.17368714 49.75455052 -27.50224073 53.41427544 -29.8125 57.0859375 C-30.73947805 58.58007976 -31.62762049 60.09833586 -32.5 61.625 C-35.11341277 65.76290355 -37.88758318 69.25838879 -42 72 C-42.33 72.99 -42.66 73.98 -43 75 C-43.66 75 -44.32 75 -45 75 C-43.55870344 70.79877385 -41.46916884 67.74607422 -38.75 64.25 C-35.40767915 59.90478151 -32.26455559 55.48471798 -29.2734375 50.890625 C-28 49 -28 49 -25.8125 46.3125 C-23.87415054 43.99801812 -23.87415054 43.99801812 -22.5 41 C-21 38 -21 38 -18.9375 35.4375 C-16.98987635 32.98726379 -16.11366061 30.89551758 -15 28 C-14.00692179 26.66150329 -13.00642948 25.32848691 -12 24 C-10.98063057 22.00980253 -9.98537521 20.0072458 -9 18 C-8.00471473 16.18490676 -7.00425807 14.37264418 -6 12.5625 C-3.7399338 8.44715558 -1.74286039 4.35715097 0 0 Z " fill="#636363" transform="translate(587,445)"/>
<path d="M0 0 C0.33 0 0.66 0 1 0 C0.91145865 1.68839195 0.80327913 3.37575694 0.6875 5.0625 C0.60048828 6.47208984 0.60048828 6.47208984 0.51171875 7.91015625 C0.00704261 10.95747554 -1.03715246 13.26883191 -2.31176758 16.05688477 C-3.61639535 19.74029464 -3.57825788 23.56408645 -3.6875 27.4375 C-3.72166016 28.26443359 -3.75582031 29.09136719 -3.79101562 29.94335938 C-3.87268621 31.96178944 -3.93803724 33.98086884 -4 36 C-4.66 36 -5.32 36 -6 36 C-6 36.66 -6 37.32 -6 38 C-12.19780681 37.61263707 -16.82965341 33.33144448 -20.89453125 28.96484375 C-22.07478055 27.58917191 -23.24691663 26.20649078 -24.41015625 24.81640625 C-26.38789042 22.55683282 -28.61716882 20.81847642 -31 19 C-33.70953375 16.41649107 -35.92095344 14.11856984 -38 11 C-35.0280615 12.12451727 -32.66559313 13.22293791 -30 15 C-30 15.66 -30 16.32 -30 17 C-28.68 17.66 -27.36 18.32 -26 19 C-26 19.66 -26 20.32 -26 21 C-25.34 21 -24.68 21 -24 21 C-24 21.66 -24 22.32 -24 23 C-23.01 23.33 -22.02 23.66 -21 24 C-19.31066078 25.6436814 -17.64740076 27.3142876 -16 29 C-12.76180126 32.00451429 -10.41176831 33.89705792 -6 35 C-6 28.4 -6 21.8 -6 15 C-5.34 15 -4.68 15 -4 15 C-3.86722656 14.45859375 -3.73445313 13.9171875 -3.59765625 13.359375 C-2.91051995 10.6467585 -2.17649541 7.94893977 -1.4375 5.25 C-1.16808594 4.26515625 -0.89867187 3.2803125 -0.62109375 2.265625 C-0.41613281 1.51796875 -0.21117187 0.7703125 0 0 Z " fill="#6B6B6B" transform="translate(369,655)"/>
<path d="M0 0 C0.99 0.33 1.98 0.66 3 1 C1.31723351 5.66418973 -1.06166933 9.82782712 -3.5 14.125 C-6.32321935 19.13447386 -9.10393646 24.15578917 -11.7421875 29.265625 C-12.18369141 30.1201123 -12.62519531 30.97459961 -13.08007812 31.85498047 C-13.92629557 33.50178599 -14.76641489 35.15174319 -15.59960938 36.80517578 C-17.65671604 40.80215798 -19.52269393 44.03079345 -23 47 C-21.33374078 42.68006869 -19.32850762 38.61660024 -17.21875 34.5 C-16.01122713 32.02303001 -14.88241933 29.61196122 -14 27 C-14.33 26.34 -14.66 25.68 -15 25 C-14.30720794 23.25152481 -13.60276544 21.50560314 -12.80859375 19.80078125 C-11.90400106 17.90125776 -11.90400106 17.90125776 -11.25 15.375 C-9.87203839 12.75687294 -8.93982427 12.17761545 -6.5 10.625 C-3.32938013 8.55949245 -3.03119411 8.08507485 -1.625 4.25 C-1.41875 3.1775 -1.2125 2.105 -1 1 C-0.67 0.67 -0.34 0.34 0 0 Z " fill="#222222" transform="translate(309,429)"/>
<path d="M0 0 C3.14435987 1.08426203 3.93765713 1.88528911 5.5625 4.875 C6.036875 5.90625 6.51125 6.9375 7 8 C7.99387334 9.33790641 8.9926892 10.67218122 10 12 C10.33 12.99 10.66 13.98 11 15 C11.76957031 15.74636719 12.53914062 16.49273437 13.33203125 17.26171875 C19.65944026 23.75588231 23.21343396 33.21605029 25 42 C25.48150447 43.50603899 25.98253143 45.00593632 26.5 46.5 C27.91283844 50.62376703 28.99747653 54.75855456 30 59 C30.66 59 31.32 59 32 59 C33.00496852 62.01490557 33.10335303 64.04181692 33.0625 67.1875 C33.05347656 68.08855469 33.04445313 68.98960937 33.03515625 69.91796875 C33.02355469 70.60503906 33.01195312 71.29210937 33 72 C32.67 72 32.34 72 32 72 C31.81824219 71.29875 31.63648438 70.5975 31.44921875 69.875 C30.10942447 64.81813542 28.67048059 59.90966274 26.75390625 55.04296875 C25.57447724 51.84689946 24.66988708 48.5745146 23.74609375 45.296875 C23.01769007 43.05445949 22.06073235 41.09990511 21 39 C20.731875 37.948125 20.46375 36.89625 20.1875 35.8125 C18.32713622 29.83975312 15.50322016 24.80386419 11.5 20 C7.01454182 14.61745019 4.06090488 8.274855 1 2 C0.67 1.34 0.34 0.68 0 0 Z " fill="#727272" transform="translate(511,227)"/>
<path d="M0 0 C0 3.38448361 -0.4525019 3.99380252 -2.38671875 6.6328125 C-2.90693604 7.34872559 -3.42715332 8.06463867 -3.96313477 8.80224609 C-4.53217529 9.56875488 -5.10121582 10.33526367 -5.6875 11.125 C-6.26749756 11.91600098 -6.84749512 12.70700195 -7.44506836 13.52197266 C-9.28606685 16.02275526 -11.14020643 18.51316816 -13 21 C-13.90443848 22.20946289 -13.90443848 22.20946289 -14.82714844 23.44335938 C-16.56543246 25.75917475 -18.31134935 28.06890192 -20.0625 30.375 C-20.59770264 31.08156738 -21.13290527 31.78813477 -21.68432617 32.51611328 C-24.27899461 35.9018241 -26.8742305 39.07661845 -30 42 C-30.66 41.67 -31.32 41.34 -32 41 C-25.45225415 31.91018811 -18.75431152 22.93695927 -12 14 C-11.29101562 13.06027344 -10.58203125 12.12054688 -9.8515625 11.15234375 C-6.78719198 7.14457531 -3.67901744 3.45604669 0 0 Z " fill="#3B3B3B" transform="translate(391,312)"/>
<path d="M0 0 C5.85300674 2.09936744 9.4154454 4.84787354 13.6875 9.3125 C14.24244141 9.86873047 14.79738281 10.42496094 15.36914062 10.99804688 C18.72614924 14.42690585 21.41949058 17.9340713 24 22 C26.01358785 24.78655824 28.05440974 27.55155253 30.09765625 30.31640625 C31.87913456 32.82949783 33.57530431 35.26738696 35 38 C34.505 38.99 34.505 38.99 34 40 C30.21794872 35.46153846 30.21794872 35.46153846 28.9375 32.75 C28.06502056 30.64005363 28.06502056 30.64005363 25 30 C23.95355934 28.36209288 22.9601817 26.68991979 22 25 C21.278125 24.113125 20.55625 23.22625 19.8125 22.3125 C18 20 18 20 18 18 C17.01 17.67 16.02 17.34 15 17 C10.9234502 13.27286875 7.38199926 9.06257658 3.76953125 4.890625 C2.13136012 2.92091997 2.13136012 2.92091997 0 2 C0 1.34 0 0.68 0 0 Z " fill="#555555" transform="translate(485,197)"/>
<path d="M0 0 C3.85365675 3.22631728 4.97040745 7.61491179 6.71875 12.1875 C7.9300011 14.84634388 8.9078064 16.06444121 11 18 C11.9921875 19.7265625 11.9921875 19.7265625 12.875 21.625 C18.45964267 33.19621037 25.60787119 43.52417249 33 54 C32.505 54.99 32.505 54.99 32 56 C26.36704208 50.00402923 21.29254505 44.02656606 17 37 C16.63261719 36.41734375 16.26523437 35.8346875 15.88671875 35.234375 C13.41718432 31.15344552 11.73061377 26.91680456 10.125 22.4296875 C9.06664599 19.8789242 9.06664599 19.8789242 7.046875 17.61328125 C4.71445344 14.6354377 3.55808752 11.85321839 2.25 8.3125 C1.82203125 7.17425781 1.3940625 6.03601563 0.953125 4.86328125 C0 2 0 2 0 0 Z " fill="#6C6C6C" transform="translate(298,610)"/>
<path d="M0 0 C2.13656357 3.20484536 2.28177621 4.23383411 2.4140625 7.9453125 C2.45289551 8.93047852 2.49172852 9.91564453 2.53173828 10.93066406 C2.56251465 11.98479492 2.59329102 13.03892578 2.625 14.125 C2.66222168 15.21522461 2.69944336 16.30544922 2.73779297 17.42871094 C3.02115291 26.28991181 3.18812083 35.13480581 3 44 C2.96519531 45.65080566 2.96519531 45.65080566 2.9296875 47.33496094 C2.84199374 51.09881681 2.73642077 54.86177548 2.625 58.625 C2.59422363 59.83575195 2.56344727 61.04650391 2.53173828 62.29394531 C2.33321501 68.19033365 2.0082288 73.43247138 0 79 C-0.66 79 -1.32 79 -2 79 C-2.33 82.96 -2.66 86.92 -3 91 C-3.33 91 -3.66 91 -4 91 C-4.27972838 85.12570408 -3.89171776 80.72223252 -1.75390625 75.23828125 C-0.08377376 70.279805 0.12332903 65.36438753 0.11352539 60.16845703 C0.11367142 59.51409164 0.11381744 58.85972626 0.1139679 58.18553162 C0.11327647 56.04292374 0.10552052 53.90040501 0.09765625 51.7578125 C0.09578933 50.26423185 0.09436672 48.77065058 0.09336853 47.27706909 C0.08956494 43.36114793 0.07975324 39.44526432 0.06866455 35.52935791 C0.05840388 31.52738961 0.05386096 27.52541519 0.04882812 23.5234375 C0.0381289 15.6822745 0.0210786 7.84114193 0 0 Z " fill="#838383" transform="translate(646,512)"/>
<path d="M0 0 C0 6.76954811 -2.96981844 13.0713839 -6 19 C-6.76459266 21.31737652 -7.38540485 23.63617252 -8 26 C-8.66 26 -9.32 26 -10 26 C-11.88248706 30.29679781 -12.98074094 34.64246668 -14.0625 39.1875 C-15.87307692 46.74615385 -15.87307692 46.74615385 -17 49 C-17.23947641 52.47381658 -17.18519001 55.95633814 -17.1875 59.4375 C-17.19974609 60.40494141 -17.21199219 61.37238281 -17.22460938 62.36914062 C-17.22654297 63.29791016 -17.22847656 64.22667969 -17.23046875 65.18359375 C-17.23457764 66.03493896 -17.23868652 66.88628418 -17.24291992 67.76342773 C-17.14310076 70.28543098 -17.14310076 70.28543098 -15 73 C-16.32 72.34 -17.64 71.68 -19 71 C-19.11798604 67.22943831 -19.18783864 63.45936235 -19.25 59.6875 C-19.28351563 58.63498047 -19.31703125 57.58246094 -19.3515625 56.49804688 C-19.43374107 49.82103812 -18.55888273 44.60534029 -15.9699707 38.4362793 C-15.00130993 36.00329015 -14.42660662 33.69301761 -13.9375 31.125 C-13.21339841 27.52989913 -11.95364294 25.1258287 -10 22 C-9.47247597 20.48849333 -8.97482319 18.96638095 -8.5 17.4375 C-7.42560661 14.03525426 -6.18676436 11.82457063 -4 9 C-3.13859157 6.92441588 -2.38142919 4.83113083 -1.6484375 2.70703125 C-1 1 -1 1 0 0 Z " fill="#5A5A5A" transform="translate(450,652)"/>
<path d="M0 0 C-3.1350193 3.1350193 -7.36520987 2.73926395 -11.61914062 3.12304688 C-15.330818 3.51135619 -18.50098444 4.13360026 -21.97338867 5.52075195 C-27.86167456 7.52461415 -33.56953267 7.3948396 -39.734375 7.328125 C-41.52865936 7.32531525 -41.52865936 7.32531525 -43.35919189 7.32244873 C-45.8737672 7.31575699 -48.38833261 7.30190032 -50.90283203 7.28125 C-54.75172605 7.24998598 -58.60021007 7.24026258 -62.44921875 7.234375 C-64.8984425 7.22520817 -67.34766208 7.21483343 -69.796875 7.203125 C-70.94589294 7.19887512 -72.09491089 7.19462524 -73.27874756 7.19024658 C-74.35046204 7.18063904 -75.42217651 7.17103149 -76.52636719 7.16113281 C-77.46518738 7.15430481 -78.40400757 7.14747681 -79.37127686 7.14044189 C-82.0021709 6.99988402 -84.4338416 6.58262066 -87 6 C-87 5.34 -87 4.68 -87 4 C-85.34460205 4.24121582 -85.34460205 4.24121582 -83.65576172 4.48730469 C-78.60453864 5.11522796 -73.59287728 5.17997541 -68.5078125 5.203125 C-67.52183075 5.20882507 -66.535849 5.21452515 -65.51998901 5.22039795 C-63.44416359 5.22979853 -61.36832357 5.23636214 -59.29248047 5.24023438 C-56.14133401 5.24994964 -52.99083788 5.28102449 -49.83984375 5.3125 C-47.81250383 5.31903069 -45.7851593 5.3242809 -43.7578125 5.328125 C-42.36358566 5.3466452 -42.36358566 5.3466452 -40.94119263 5.36553955 C-35.31950059 5.34667587 -30.59385308 4.54696749 -25.27201843 2.71604919 C-21.48315261 1.52195047 -17.62833238 1.18058117 -13.6875 0.8125 C-12.91599609 0.73064453 -12.14449219 0.64878906 -11.34960938 0.56445312 C-7.55150172 0.17649191 -3.82307151 -0.09920146 0 0 Z " fill="#515151" transform="translate(522,721)"/>
<path d="M0 0 C6.405772 12.38449253 5.85054743 33.76374321 2 47 C1.67 47 1.34 47 1 47 C0.26035566 31.32190062 -0.14027702 15.69543984 0 0 Z " fill="#747474" transform="translate(544,300)"/>
<path d="M0 0 C0.8125 1.625 0.8125 1.625 1 4 C-0.19102188 5.48877735 -1.39439877 6.9707074 -2.6796875 8.37890625 C-4.32434471 10.39823389 -5.12195118 12.5955634 -6.0546875 15.0078125 C-7.6996904 18.47455416 -10.02824019 21.47736482 -12.28125 24.5703125 C-13.99016218 26.9860929 -15.50449049 29.44745497 -17 32 C-18.1125687 33.88240296 -19.23791717 35.75730285 -20.375 37.625 C-21.22191406 39.03652344 -21.22191406 39.03652344 -22.0859375 40.4765625 C-24.14075784 43.18557054 -25.99683095 44.46229489 -29 46 C-28.75 43.6875 -28.75 43.6875 -28 41 C-26.68212715 39.97971135 -25.34789347 38.98028616 -24 38 C-23.731875 37.278125 -23.46375 36.55625 -23.1875 35.8125 C-21.97708908 32.94573729 -20.78889543 31.55881925 -18.6875 29.3125 C-15.38326399 25.68191969 -13.44329569 22.08708271 -11.390625 17.66015625 C-9.27258794 13.60851793 -6.53575352 10.07366523 -3.76953125 6.4453125 C-2.24733482 4.3417916 -1.06882298 2.3568917 0 0 Z " fill="#585858" transform="translate(430,281)"/>
<path d="M0 0 C5.14127083 0.09019773 7.92280994 0.43200162 11.5625 4.1875 C12.12195313 4.81140625 12.68140625 5.4353125 13.2578125 6.078125 C15.92516694 9.02058774 18.95715712 11.45394779 22 14 C21.67 14.66 21.34 15.32 21 16 C18.5 14.625 18.5 14.625 16 13 C16 12.34 16 11.68 16 11 C15.01 10.67 14.02 10.34 13 10 C11.64172029 8.35360035 10.30745749 6.68704193 9 5 C6.26752652 3.63376326 4.01801098 3.871574 1 4 C-1.08020999 6.08020999 -0.44219201 10.32387412 -0.62109375 13.140625 C-1.00664476 16.05014395 -1.79850578 18.3343367 -3 21 C-3.33 21 -3.66 21 -4 21 C-4.10883596 18.62374823 -4.18766696 16.25256024 -4.25 13.875 C-4.28351563 13.20984375 -4.31703125 12.5446875 -4.3515625 11.859375 C-4.45638928 6.51320929 -3.19826227 4.04189838 0 0 Z " fill="#393939" transform="translate(468,183)"/>
<path d="M0 0 C0.33 0.99 0.66 1.98 1 3 C0.443125 3.474375 -0.11375 3.94875 -0.6875 4.4375 C-3.33038218 7.36609918 -4.95791818 10.38703437 -6.75390625 13.87890625 C-7.98589913 15.97599758 -9.2921528 17.2921528 -11 19 C-11.67482422 20.16595703 -11.67482422 20.16595703 -12.36328125 21.35546875 C-14.29260571 24.4727782 -16.56412136 26.75726106 -19.1875 29.3125 C-20.08855469 30.19550781 -20.98960937 31.07851563 -21.91796875 31.98828125 C-22.60503906 32.65214844 -23.29210937 33.31601562 -24 34 C-24 30.06334889 -22.22771192 28.06224178 -20 25 C-19.55269531 24.36578125 -19.10539062 23.7315625 -18.64453125 23.078125 C-15.58607681 18.84712637 -12.27975171 15.21503948 -8.53125 11.58984375 C-6.60552716 9.59043253 -5.33890037 7.42277209 -4 5 C-2.68962066 3.31522656 -1.36176922 1.64351457 0 0 Z " fill="#676767" transform="translate(384,349)"/>
<path d="M0 0 C1 3 1 3 -0.125 5.375 C-2 8 -2 8 -4.4375 10.3125 C-7.16951454 13.17778354 -8.47876311 15.72876979 -10.0078125 19.328125 C-11 21 -11 21 -14 22 C-14.28875 22.86625 -14.5775 23.7325 -14.875 24.625 C-16.20727567 28.62182701 -18.13419598 31.89537898 -21 35 C-21.66 35 -22.32 35 -23 35 C-21.83102055 31.04345416 -20.58095831 28.20038831 -18 25 C-17.525625 24.13375 -17.05125 23.2675 -16.5625 22.375 C-15 20 -15 20 -12.875 19 C-12.25625 18.67 -11.6375 18.34 -11 18 C-10.8659375 17.24847656 -10.731875 16.49695313 -10.59375 15.72265625 C-9.89406002 12.51420944 -8.70172098 10.95672903 -6.625 8.4375 C-6.01914062 7.69371094 -5.41328125 6.94992187 -4.7890625 6.18359375 C-4.19867188 5.46300781 -3.60828125 4.74242187 -3 4 C-1.99308812 2.67187868 -0.99073722 1.34023041 0 0 Z " fill="#676767" transform="translate(492,587)"/>
<path d="M0 0 C0.33 0 0.66 0 1 0 C1.33 6.6 1.66 13.2 2 20 C13.34526355 24.80731507 24.09226478 24.66414311 36.25 24.75 C38.26695218 24.77820685 40.28388099 24.80814073 42.30078125 24.83984375 C47.20047835 24.91314541 52.09989937 24.96306137 57 25 C57 25.33 57 25.66 57 26 C50.61376677 26.07647595 44.22765298 26.12877762 37.84106445 26.16479492 C35.6714232 26.17982036 33.50181202 26.20024653 31.33227539 26.22631836 C28.2019099 26.26297706 25.0719483 26.27978926 21.94140625 26.29296875 C20.98166397 26.30845261 20.02192169 26.32393646 19.03309631 26.33988953 C12.93945567 26.34138992 7.56059706 25.62892765 2 23 C0 21 0 21 -0.22705078 18.84521484 C-0.21657715 17.97590332 -0.20610352 17.1065918 -0.1953125 16.2109375 C-0.18886719 15.26992188 -0.18242187 14.32890625 -0.17578125 13.359375 C-0.15902344 12.37453125 -0.14226562 11.3896875 -0.125 10.375 C-0.11597656 9.38242187 -0.10695313 8.38984375 -0.09765625 7.3671875 C-0.07404116 4.91121866 -0.04110799 2.45572832 0 0 Z " fill="#838383" transform="translate(432,701)"/>
<path d="M0 0 C0.33 0.66 0.66 1.32 1 2 C0.03600241 3.76732892 -0.93421668 5.53336476 -1.9921875 7.24609375 C-3.15597057 9.13713793 -3.15597057 9.13713793 -4 12 C-4.78375 12.763125 -5.5675 13.52625 -6.375 14.3125 C-9.08461687 17.08663155 -10.36916866 19.51595122 -12 23 C-12.53625 23.70125 -13.0725 24.4025 -13.625 25.125 C-15.12739177 26.90428187 -15.12739177 26.90428187 -15.4375 29.0625 C-16 31 -16 31 -17.8125 32.25 C-20.15763707 34.12610965 -20.76386326 35.32251805 -22 38 C-23.50849893 41.25644213 -24.79757633 43.17004362 -28 45 C-27.70867187 44.42121094 -27.41734375 43.84242188 -27.1171875 43.24609375 C-26.42214489 41.84871788 -25.73781837 40.44589345 -25.0703125 39.03515625 C-24.60238281 38.05869141 -24.60238281 38.05869141 -24.125 37.0625 C-23.66480469 36.08990234 -23.66480469 36.08990234 -23.1953125 35.09765625 C-22 33 -22 33 -20.12109375 30.65625 C-17.77371489 27.71662269 -15.87569258 24.66035202 -13.9375 21.4375 C-11.75775132 17.81853146 -9.53728315 14.3730055 -7 11 C-6.31867549 9.33927151 -5.65257873 7.672233 -5 6 C-2.375 1.1875 -2.375 1.1875 0 0 Z " fill="#727272" transform="translate(526,410)"/>
<path d="M0 0 C0 7.15657295 -6.07999992 14.15392844 -9.8125 20.0859375 C-10.73947805 21.58007976 -11.62762049 23.09833586 -12.5 24.625 C-15.11341277 28.76290355 -17.88758318 32.25838879 -22 35 C-22.33 35.99 -22.66 36.98 -23 38 C-23.66 38 -24.32 38 -25 38 C-23.55870344 33.79877385 -21.46916884 30.74607422 -18.75 27.25 C-15.40767915 22.90478151 -12.26455559 18.48471798 -9.2734375 13.890625 C-8 12 -8 12 -5.8125 9.3125 C-3.76495903 6.70012014 -2.42619058 3.98820884 -1 1 C-0.67 0.67 -0.34 0.34 0 0 Z " fill="#646464" transform="translate(567,482)"/>
<path d="M0 0 C0 0.99 0 1.98 0 3 C-0.33 3.33 -0.66 3.66 -1 4 C-1.25284448 5.37084355 -1.47604997 6.74716429 -1.6875 8.125 C-2.69876861 13.4877881 -4.64844877 18.30691862 -6.75 23.30883789 C-8.79907227 28.27017924 -10.15596678 33.21805882 -11.34375 38.45703125 C-12.16260957 41.63011209 -13.35467462 44.17944221 -15 47 C-16.59397546 43.81204908 -15.16995921 40.80261069 -14.3125 37.5 C-14.12896973 36.77893066 -13.94543945 36.05786133 -13.75634766 35.31494141 C-12.46653184 30.40088609 -10.88505954 25.72259931 -8.875 21.05078125 C-7.87901541 18.79871612 -7.87901541 18.79871612 -6.875 15.5625 C-6 13 -6 13 -4 10 C-3.855625 8.845 -3.71125 7.69 -3.5625 6.5 C-3.00561491 3.03493722 -2.73795085 2.0237028 0 0 Z " fill="#444444" transform="translate(304,471)"/>
<path d="M0 0 C0.66 0 1.32 0 2 0 C0.67395738 2.79327707 -0.80986123 5.28048226 -2.609375 7.79296875 C-3.36686035 8.85656616 -3.36686035 8.85656616 -4.13964844 9.94165039 C-4.67106445 10.68278076 -5.20248047 11.42391113 -5.75 12.1875 C-9.93254798 18.06194239 -14.07100316 23.95141275 -18 30 C-18.99 29.67 -19.98 29.34 -21 29 C-18.81658029 25.85131718 -16.62750255 22.70660701 -14.4375 19.5625 C-13.82841797 18.68400391 -13.21933594 17.80550781 -12.59179688 16.90039062 C-3.36059827 3.66412173 -3.36059827 3.66412173 0 0 Z " fill="#0B0B0B" transform="translate(98,189)"/>
<path d="M0 0 C4.63079598 4.63079598 5.24361036 9.39986219 5.6875 15.6328125 C5.8866545 18.18299442 5.8866545 18.18299442 7.5 20.875 C9.81338934 25.69456111 9.75199705 30.71497157 10 36 C8.14731313 33.22096969 7.39166552 31.34225139 6.5 28.1875 C5.72272592 25.46281642 4.92237208 22.7723118 4.0078125 20.08984375 C2.95923208 16.87500999 2.13863925 13.66867636 1.375 10.375 C1.11460937 9.26898437 0.85421875 8.16296875 0.5859375 7.0234375 C0 4 0 4 0 0 Z " fill="#6C6C6C" transform="translate(288,573)"/>
<path d="M0 0 C-0.58007812 0.25394531 -1.16015625 0.50789062 -1.7578125 0.76953125 C-5.26239423 2.31362914 -8.72587689 3.85745598 -12.125 5.625 C-16.87075032 7.89470667 -21.8420245 9.06218627 -27 10 C-25.71034824 8.62437146 -24.37310707 7.29233607 -23 6 C-22.34 6 -21.68 6 -21 6 C-21 5.34 -21 4.68 -21 4 C-20.37351562 3.87882813 -19.74703125 3.75765625 -19.1015625 3.6328125 C-18.28429687 3.46523438 -17.46703125 3.29765625 -16.625 3.125 C-15.81289063 2.96257813 -15.00078125 2.80015625 -14.1640625 2.6328125 C-11.81326077 2.13341068 -11.81326077 2.13341068 -10 0 C-6.25591431 -0.89532484 -3.6700919 -1.05654161 0 0 Z " fill="#6C6C6C" transform="translate(549,711)"/>
<path d="M0 0 C0.33 0.66 0.66 1.32 1 2 C0.01 2.495 0.01 2.495 -1 3 C-1.4125 3.70125 -1.825 4.4025 -2.25 5.125 C-3.66020929 7.44177241 -4.97066256 9.18574538 -6.75 11.1875 C-9.25788644 14.03143077 -11.42609674 16.99253944 -13.5625 20.125 C-16.11037483 23.83923531 -18.67175242 26.97432038 -22 30 C-21.731875 29.484375 -21.46375 28.96875 -21.1875 28.4375 C-19.8926039 25.87085712 -19.8926039 25.87085712 -18.6875 22.5625 C-16.90874448 18.80734947 -14.94542365 16.87178805 -12 14 C-10.20679176 10.83354526 -10.20679176 10.83354526 -9 8 C-8.34 8 -7.68 8 -7 8 C-6.6596875 7.13375 -6.6596875 7.13375 -6.3125 6.25 C-4.66961977 3.4336339 -2.60466773 1.91922886 0 0 Z " fill="#7B7B7B" transform="translate(492,466)"/>
<path d="M0 0 C1.02568631 3.12557112 1.00835842 4.783804 -0.25 7.8125 C-0.67345703 8.85664063 -0.67345703 8.85664063 -1.10546875 9.921875 C-1.91632621 11.80561373 -2.7387549 13.68436117 -3.5625 15.5625 C-5.10917358 18.97415558 -5.10917358 18.97415558 -5.8125 22.6875 C-7.30565664 26.85262116 -9.18605601 27.92720436 -13 30 C-12.70996094 29.44183594 -12.41992188 28.88367188 -12.12109375 28.30859375 C-10.96629386 25.93059118 -10.00926304 23.53016752 -9.0625 21.0625 C-7.96310426 18.25657953 -6.91965802 15.87204796 -5.3125 13.3125 C-3.76564448 10.91742917 -3.76564448 10.91742917 -3.5 7.4375 C-2.99265292 3.9494888 -2.34152577 2.54513671 0 0 Z " fill="#595959" transform="translate(601,415)"/>
<path d="M0 0 C0.33 0 0.66 0 1 0 C1.48523363 4.85233634 0.40185482 7.63826616 -1.8515625 11.76953125 C-3.54931175 15.06686057 -4.78628563 18.52073177 -6.0703125 21.99609375 C-7 24 -7 24 -9 25 C-9.66 25.99 -10.32 26.98 -11 28 C-9.93165799 21.16261115 -7.12770655 15.0701608 -3.984375 8.96484375 C-2.51522611 6.03237592 -1.26124405 3.02698571 0 0 Z " fill="#727272" transform="translate(313,451)"/>
<path d="M0 0 C2.1875 -0.375 2.1875 -0.375 5 0 C6.99022836 1.83961648 8.38989899 3.79186148 10 6 C9.67 6.66 9.34 7.32 9 8 C8.4225 7.67 7.845 7.34 7.25 7 C4.80116138 5.72924102 4.80116138 5.72924102 1 6 C0.87882813 6.63808594 0.75765625 7.27617187 0.6328125 7.93359375 C0.46523438 8.75988281 0.29765625 9.58617187 0.125 10.4375 C-0.03742187 11.26121094 -0.19984375 12.08492188 -0.3671875 12.93359375 C-0.57601562 13.61550781 -0.78484375 14.29742187 -1 15 C-1.99 15.495 -1.99 15.495 -3 16 C-2.88487847 14.27014758 -2.75744323 12.54111249 -2.625 10.8125 C-2.55539062 9.84957031 -2.48578125 8.88664062 -2.4140625 7.89453125 C-1.99784147 4.98491062 -1.20125904 2.67109226 0 0 Z " fill="#676767" transform="translate(605,399)"/>
<path d="M0 0 C1 2 1 2 0.43359375 4.1015625 C-1.95078469 10.14198788 -4.8292938 15.02295727 -9 20 C-10 18 -10 18 -9.25 15.1875 C-8.07794038 12.19874797 -6.64569047 9.74281745 -5 7 C-4.67 5.9275 -4.34 4.855 -4 3.75 C-3.67 2.8425 -3.34 1.935 -3 1 C-2.01 0.67 -1.02 0.34 0 0 Z " fill="#6D6D6D" transform="translate(634,619)"/>
<path d="M0 0 C0.6875 1.6875 0.6875 1.6875 1 4 C-0.17758004 6.42058119 -1.63029363 8.49195189 -3.2109375 10.6640625 C-3.63632812 11.24929688 -4.06171875 11.83453125 -4.5 12.4375 C-4.93183594 13.02660156 -5.36367188 13.61570312 -5.80859375 14.22265625 C-7.19531514 16.19125957 -7.19531514 16.19125957 -8.5625 19.375 C-10 22 -10 22 -12.1875 22.875 C-12.785625 22.91625 -13.38375 22.9575 -14 23 C-8.94736842 12.47368421 -8.94736842 12.47368421 -6 11 C-5.15934368 9.03700146 -4.53482652 7.03929129 -3.87890625 5.0078125 C-2.91437162 2.80438673 -1.78745022 1.58331246 0 0 Z " fill="#6D6D6D" transform="translate(468,622)"/>
<path d="M0 0 C0.33 0 0.66 0 1 0 C1.25 7.625 1.25 7.625 -1 11 C-1.88558477 15.09033709 -2.17170155 19.09767343 -2.31640625 23.2734375 C-2.35830078 24.42714844 -2.40019531 25.58085938 -2.44335938 26.76953125 C-2.48267578 27.95933594 -2.52199219 29.14914062 -2.5625 30.375 C-2.60568359 31.58800781 -2.64886719 32.80101562 -2.69335938 34.05078125 C-2.79905513 37.03375032 -2.90115321 40.01679742 -3 43 C-3.33 43 -3.66 43 -4 43 C-4.10028716 38.80491076 -4.17212116 34.61049095 -4.21972656 30.41455078 C-4.23961011 28.99287738 -4.26672727 27.57128317 -4.30175781 26.14990234 C-4.5268166 16.77024638 -3.70360969 8.78093707 0 0 Z " fill="#717171" transform="translate(290,513)"/>
<path d="M0 0 C0.33 1.32 0.66 2.64 1 4 C0.34 4 -0.32 4 -1 4 C-1.2475 4.515625 -1.495 5.03125 -1.75 5.5625 C-8.19480519 18.12987013 -8.19480519 18.12987013 -14 22 C-14.33 22.99 -14.66 23.98 -15 25 C-15.66 25 -16.32 25 -17 25 C-15.46373556 20.21950653 -12.75349175 16.88666952 -9.625 13.0625 C-6.19116069 8.82528919 -2.95545752 4.58726226 0 0 Z " fill="#5B5B5B" transform="translate(526,541)"/>
<path d="M0 0 C0.33 0.99 0.66 1.98 1 3 C-0.26054802 5.4310569 -1.55258193 7.68920975 -3 10 C-3.7734375 11.3921875 -3.7734375 11.3921875 -4.5625 12.8125 C-6 15 -6 15 -9 17 C-8.71125 16.154375 -8.4225 15.30875 -8.125 14.4375 C-6.93926132 10.99977893 -6.93926132 10.99977893 -6.1875 7.375 C-4.82634807 3.50646292 -3.37576271 2.22089652 0 0 Z " fill="#303030" transform="translate(303,439)"/>
<path d="M0 0 C0.66 0 1.32 0 2 0 C-0.23457293 7.63479083 -4.67289249 14.17109519 -8.75 20.9375 C-9.16121094 21.62134766 -9.57242188 22.30519531 -9.99609375 23.00976562 C-10.99671385 24.67358742 -11.99825889 26.3368529 -13 28 C-13.66 27.67 -14.32 27.34 -15 27 C-10.05 18.09 -5.1 9.18 0 0 Z " fill="#090909" transform="translate(63,241)"/>
<path d="M0 0 C0.6875 1.5625 0.6875 1.5625 1 4 C0.32930068 5.60967837 -0.35321033 7.21584627 -1.10546875 8.7890625 C-2.63410919 12.56727425 -3.38156538 16.55108304 -4.25390625 20.5234375 C-4.50011719 21.34070313 -4.74632812 22.15796875 -5 23 C-5.66 23.33 -6.32 23.66 -7 24 C-6.42978625 17.04339229 -4.98697306 10.68572695 -3 4 C-2.34 4 -1.68 4 -1 4 C-0.67 2.68 -0.34 1.36 0 0 Z " fill="#666666" transform="translate(541,368)"/>
<path d="M0 0 C0.33 0 0.66 0 1 0 C0.91145865 1.68839195 0.80327913 3.37575694 0.6875 5.0625 C0.62949219 6.00222656 0.57148438 6.94195313 0.51171875 7.91015625 C0.00704261 10.95747554 -1.03715246 13.26883191 -2.31176758 16.05688477 C-3.61639535 19.74029464 -3.57825788 23.56408645 -3.6875 27.4375 C-3.72166016 28.26443359 -3.75582031 29.09136719 -3.79101562 29.94335938 C-3.87268621 31.96178944 -3.93803724 33.98086884 -4 36 C-4.33 36 -4.66 36 -5 36 C-5.08767555 32.62516587 -5.14061628 29.25062785 -5.1875 25.875 C-5.21263672 24.92367187 -5.23777344 23.97234375 -5.26367188 22.9921875 C-5.3214727 17.44330859 -4.90298336 13.87701204 -2 9 C-1.24675624 6.50084689 -1.24675624 6.50084689 -0.8125 4.125 C-0.65394531 3.34382812 -0.49539063 2.56265625 -0.33203125 1.7578125 C-0.22246094 1.17773438 -0.11289062 0.59765625 0 0 Z " fill="#585858" transform="translate(369,655)"/>
<path d="M0 0 C0.66 0 1.32 0 2 0 C0.88592835 5.05617134 -0.32507841 8.55302707 -3 13 C-4.0682453 15.76879755 -5.00031977 18.56346064 -5.9375 21.37890625 C-6.99036797 23.97623864 -8.22017085 25.85105855 -10 28 C-9 20.57142857 -9 20.57142857 -8 17 C-7.34 17 -6.68 17 -6 17 C-5.9175 15.948125 -5.835 14.89625 -5.75 13.8125 C-4.93038769 9.6461374 -3.67527097 8.17688428 -1 5 C-0.21053391 2.31492671 -0.21053391 2.31492671 0 0 Z " fill="#727272" transform="translate(380,627)"/>
<path d="M0 0 C3.6875 0.5 3.6875 0.5 6.4375 3.3125 C7.55125 4.8903125 7.55125 4.8903125 8.6875 6.5 C9.67040968 7.51680311 10.66084787 8.52738219 11.6875 9.5 C10.6975 9.995 10.6975 9.995 9.6875 10.5 C9.6875 9.84 9.6875 9.18 9.6875 8.5 C8.6975 8.5 7.7075 8.5 6.6875 8.5 C4.5 6.625 4.5 6.625 2.6875 4.5 C2.6875 3.84 2.6875 3.18 2.6875 2.5 C-0.60325996 2.87904208 -0.60325996 2.87904208 -3.3125 4.5 C-3.54442865 6.01469448 -3.72465238 7.53754562 -3.875 9.0625 C-3.95878906 9.88878906 -4.04257812 10.71507812 -4.12890625 11.56640625 C-4.18949219 12.20449219 -4.25007813 12.84257812 -4.3125 13.5 C-4.6425 13.5 -4.9725 13.5 -5.3125 13.5 C-5.36641993 11.70866022 -5.40525571 9.91686101 -5.4375 8.125 C-5.46070313 7.12726563 -5.48390625 6.12953125 -5.5078125 5.1015625 C-5.20068644 1.01064342 -3.94320452 0.59520068 0 0 Z " fill="#666666" transform="translate(473.3125,186.5)"/>
<path d="M0 0 C0.33 0.99 0.66 1.98 1 3 C0.39671875 3.64066406 -0.2065625 4.28132812 -0.828125 4.94140625 C-5.29084787 9.77122407 -8.89308314 14.23001155 -12 20 C-13.58911179 22.08339946 -15.26953651 24.02919436 -17 26 C-17.33 25.34 -17.66 24.68 -18 24 C-17.13375 22.9790625 -17.13375 22.9790625 -16.25 21.9375 C-13.92302707 19.06782582 -13.92302707 19.06782582 -12.3125 15.8125 C-9.87279246 11.3462612 -6.38355934 7.83218371 -2.92578125 4.13671875 C-0.96489688 2.15196881 -0.96489688 2.15196881 0 0 Z " fill="#6E6E6E" transform="translate(436,542)"/>
<path d="M0 0 C0 3.65725087 -1.04218764 4.95451411 -3 8 C-3.45375 8.825 -3.9075 9.65 -4.375 10.5 C-7.17765692 14.81177988 -10.81455239 18.05468502 -15 21 C-11.45443085 13.2542951 -5.5457431 6.41226546 0 0 Z " fill="#606060" transform="translate(508,566)"/>
<path d="M0 0 C0 3.48961209 -0.90379374 5.11480295 -2.5 8.1875 C-2.9640625 9.08855469 -3.428125 9.98960937 -3.90625 10.91796875 C-4.2671875 11.60503906 -4.628125 12.29210937 -5 13 C-5.66 13 -6.32 13 -7 13 C-7.226875 13.763125 -7.45375 14.52625 -7.6875 15.3125 C-9.26731682 18.54736301 -10.83282717 19.41641358 -14 21 C-12.71673197 18.33751182 -11.3243872 15.8584337 -9.6875 13.3984375 C-9.03394531 12.41617188 -9.03394531 12.41617188 -8.3671875 11.4140625 C-7.91601562 10.74117187 -7.46484375 10.06828125 -7 9.375 C-6.54882812 8.694375 -6.09765625 8.01375 -5.6328125 7.3125 C-5.19710937 6.66023437 -4.76140625 6.00796875 -4.3125 5.3359375 C-3.91675781 4.74345215 -3.52101563 4.1509668 -3.11328125 3.54052734 C-2 2 -2 2 0 0 Z " fill="#5F5F5F" transform="translate(541,520)"/>
<path d="M0 0 C0.66 0 1.32 0 2 0 C0.30402096 5.01727133 -2.51610941 7.95064365 -6.125 11.71875 C-8.06870151 14.08358684 -8.9052739 16.16961842 -10 19 C-12.625 21.3125 -12.625 21.3125 -15 23 C-13.61542575 17.31366674 -10.77599997 14.01913681 -6.9375 9.8125 C-5.83843778 8.59344725 -4.74320914 7.37092437 -3.65234375 6.14453125 C-3.16757568 5.61190674 -2.68280762 5.07928223 -2.18334961 4.53051758 C-0.77958747 2.88893758 -0.77958747 2.88893758 0 0 Z " fill="#646464" transform="translate(457,513)"/>
<path d="M0 0 C0.33 0 0.66 0 1 0 C0.03644647 13.6332574 0.03644647 13.6332574 -1 20 C-1.99 20 -2.98 20 -4 20 C-4.31420773 14.03005321 -3.59503404 10.50147217 -1 5 C-0.30859478 2.22111387 -0.30859478 2.22111387 0 0 Z " fill="#101010" transform="translate(278,516)"/>
<path d="M0 0 C-1.29476731 3.88430192 -3.70059374 5.3568762 -6.875 7.6875 C-7.41769531 8.10322266 -7.96039063 8.51894531 -8.51953125 8.94726562 C-12.61991995 12 -12.61991995 12 -16 12 C-16.33 12.99 -16.66 13.98 -17 15 C-17.66 15 -18.32 15 -19 15 C-17.65658689 11.88481501 -16.33074518 10.19247453 -13.59375 8.203125 C-12.93246094 7.71972656 -12.27117187 7.23632812 -11.58984375 6.73828125 C-10.55537109 6.00158203 -10.55537109 6.00158203 -9.5 5.25 C-8.46552734 4.49009766 -8.46552734 4.49009766 -7.41015625 3.71484375 C-2.27345856 0 -2.27345856 0 0 0 Z " fill="#090909" transform="translate(204,88)"/>
<path d="M0 0 C3.14435987 1.08426203 3.93765713 1.88528911 5.5625 4.875 C6.036875 5.90625 6.51125 6.9375 7 8 C7.99307821 9.33849671 8.99357052 10.67151309 10 12 C11.506978 14.29483668 12.74691332 16.53857973 14 19 C13.67 19.99 13.34 20.98 13 22 C7.82690486 16.0605204 4.43379392 9.03927754 1 2 C0.67 1.34 0.34 0.68 0 0 Z " fill="#7B7B7B" transform="translate(511,227)"/>
<path d="M0 0 C0.33 0 0.66 0 1 0 C1.21192221 5.19209404 0.5912689 9.126739 -1 14 C-1.66 14 -2.32 14 -3 14 C-3.33 17.96 -3.66 21.92 -4 26 C-4.33 26 -4.66 26 -5 26 C-5.28016473 20.1165406 -4.84807429 15.72994642 -2.80078125 10.21875 C-1.59288245 6.87198649 -0.81791598 3.46041374 0 0 Z " fill="#5E5E5E" transform="translate(647,577)"/>
<path d="M0 0 C0.66 0 1.32 0 2 0 C-0.13766171 7.244298 -3.22684019 13.46718285 -7 20 C-7.66 19.67 -8.32 19.34 -9 19 C-6.03 12.73 -3.06 6.46 0 0 Z " fill="#090909" transform="translate(47,271)"/>
<path d="M0 0 C4.37351643 3.5826888 4.3403633 8.6774142 5 14 C5.125 17.6875 5.125 17.6875 5 20 C2.36304886 16.92957744 1.45799372 14.54028612 0.8125 10.5625 C0.65394531 9.63566406 0.49539063 8.70882813 0.33203125 7.75390625 C0.01642914 5.13626519 -0.06212785 2.63326502 0 0 Z " fill="#767676" transform="translate(635,466)"/>
<path d="M0 0 C3.59368564 3.18730434 5.70805894 6.74662652 7.8125 11 C8.13669922 11.61617187 8.46089844 12.23234375 8.79492188 12.8671875 C11.07248791 17.41256553 11.07248791 17.41256553 10.69921875 20.4375 C10.46847656 20.953125 10.23773437 21.46875 10 22 C4.82421875 11.6484375 4.82421875 11.6484375 3.90380859 9.79980469 C3.04039489 8.0804406 2.15546377 6.37193242 1.26953125 4.6640625 C0 2 0 2 0 0 Z " fill="#535353" transform="translate(523,243)"/>
<path d="M0 0 C0.66 0 1.32 0 2 0 C1.81824219 0.52207031 1.63648438 1.04414062 1.44921875 1.58203125 C-0.38057017 6.94002855 -1.90215431 12.31384806 -3.25390625 17.8125 C-4 20 -4 20 -6 21 C-5.35436589 16.88638836 -4.55188012 12.85716797 -3.5625 8.8125 C-3.31628906 7.78769531 -3.07007813 6.76289062 -2.81640625 5.70703125 C-2 3 -2 3 0 0 Z " fill="#898989" transform="translate(440,678)"/>
<path d="M0 0 C0.33 0.66 0.66 1.32 1 2 C0.20335937 3.03447266 0.20335937 3.03447266 -0.609375 4.08984375 C-4.91926165 9.82325136 -8.4751922 15.27271606 -11 22 C-12 20 -12 20 -11.546875 18.1953125 C-10.06901744 14.35578059 -8.63401376 11.20662545 -6 8 C-5.690625 7.34 -5.38125 6.68 -5.0625 6 C-3.75223297 3.53361499 -2.03093182 1.89553636 0 0 Z " fill="#7D7D7D" transform="translate(396,602)"/>
<path d="M0 0 C0.33 1.32 0.66 2.64 1 4 C-0.299375 4.99 -0.299375 4.99 -1.625 6 C-5.43886244 9.15097682 -8.17861552 12.96802147 -11 17 C-11.625 15.140625 -11.625 15.140625 -12 13 C-10 10.75 -10 10.75 -8.61328125 9.50390625 C-6.65682261 7.68008888 -4.93806359 5.70902659 -3.1875 3.6875 C-2.58292969 2.99011719 -1.97835938 2.29273438 -1.35546875 1.57421875 C-0.90816406 1.05472656 -0.46085937 0.53523438 0 0 Z " fill="#7B7B7B" transform="translate(358,385)"/>
<path d="M0 0 C0.66 0.33 1.32 0.66 2 1 C-2.80239407 5.77744657 -6.07011948 8.85562749 -13 9 C-10.82157893 5.73236839 -9.3929075 4.85067682 -6 3 C-4.948125 2.4225 -3.89625 1.845 -2.8125 1.25 C-1.884375 0.8375 -0.95625 0.425 0 0 Z " fill="#626262" transform="translate(576,692)"/>
<path d="M0 0 C2.06339685 2.06339685 2.56591822 3.18443836 3.5 5.875 C4.30386648 8.14715323 5.07634096 10.13741373 6.25 12.25 C7.21999976 14.51333277 6.81177087 15.72704155 6 18 C5.71125 17.360625 5.4225 16.72125 5.125 16.0625 C4.17176549 13.84793921 4.17176549 13.84793921 2 13 C1.3671875 11.07421875 1.3671875 11.07421875 0.875 8.6875 C0.70742188 7.90761719 0.53984375 7.12773437 0.3671875 6.32421875 C0 4 0 4 0 0 Z " fill="#656565" transform="translate(630,450)"/>
<path d="M0 0 C0 3.53528313 -0.74871272 4.41649425 -2.75 7.25 C-5.39025475 11.07273852 -7.75183616 14.93601152 -10 19 C-10.66 18.34 -11.32 17.68 -12 17 C-11.236875 15.948125 -10.47375 14.89625 -9.6875 13.8125 C-8.17267609 11.6977037 -6.76970799 9.61310942 -5.4375 7.375 C-3.83102347 4.72082138 -1.97748461 2.38661936 0 0 Z " fill="#232323" transform="translate(418,277)"/>
<path d="M0 0 C0 0.99 0 1.98 0 3 C-0.33 3.33 -0.66 3.66 -1 4 C-1.32352982 5.53529607 -1.60872651 7.07874517 -1.875 8.625 C-2.72814148 13.12338234 -4.02891255 16.87863534 -6 21 C-6.33 21 -6.66 21 -7 21 C-7.28942283 15.98333756 -7.03907548 13.89001661 -4 10 C-3.835 8.824375 -3.67 7.64875 -3.5 6.4375 C-3 3 -3 3 -1.4375 1.0625 C-0.7259375 0.5365625 -0.7259375 0.5365625 0 0 Z " fill="#545454" transform="translate(304,471)"/>
<path d="M0 0 C0 3.75856468 -0.77135387 4.98054395 -3 8 C-5.25170354 9.83638933 -7.56899513 11.39461943 -10 13 C-10 10 -10 10 -8.57421875 8.53515625 C-7.95160156 8.04917969 -7.32898438 7.56320312 -6.6875 7.0625 C-4.03125951 4.90632098 -1.88931771 2.88954474 0 0 Z " fill="#343434" transform="translate(338,386)"/>
<path d="M0 0 C0 4.50376958 -2.29737405 7.49389066 -5 11 C-7.8125 13 -7.8125 13 -10 14 C-9.65930765 10.84859577 -9.41923159 9.39218439 -7.0625 7.1875 C-5 6 -5 6 -3 6 C-2.814375 5.071875 -2.814375 5.071875 -2.625 4.125 C-2 2 -2 2 0 0 Z " fill="#696969" transform="translate(411,313)"/>
<path d="M0 0 C0.33 0 0.66 0 1 0 C1.69969682 2.24623699 2.38435043 4.49716414 3.0625 6.75 C3.63677734 8.62945313 3.63677734 8.62945313 4.22265625 10.546875 C4.92656828 13.6738008 5.16653785 15.09466046 4 18 C0.6312267 11.70185861 -0.13958262 7.11871364 0 0 Z " fill="#838383" transform="translate(287,561)"/>
<path d="M0 0 C1.25631019 3.58218177 0.7448506 6.00647476 -0.25 9.625 C-0.62898438 11.06746094 -0.62898438 11.06746094 -1.015625 12.5390625 C-2 15 -2 15 -5 17 C-4.34 12.71 -3.68 8.42 -3 4 C-2.34 4 -1.68 4 -1 4 C-0.67 2.68 -0.34 1.36 0 0 Z " fill="#6F6F6F" transform="translate(466,204)"/>
<path d="M0 0 C2.1875 -0.375 2.1875 -0.375 5 0 C6.99022836 1.83961648 8.38989899 3.79186148 10 6 C9.67 6.66 9.34 7.32 9 8 C8.46375 7.319375 7.9275 6.63875 7.375 5.9375 C5.08837848 3.61740673 5.08837848 3.61740673 1.75 4.25 C0.38875 4.62125 0.38875 4.62125 -1 5 C-0.67 3.35 -0.34 1.7 0 0 Z " fill="#4E4E4E" transform="translate(605,399)"/>
<path d="M0 0 C0.33 0.66 0.66 1.32 1 2 C0.34 2 -0.32 2 -1 2 C-1.12375 2.7425 -1.2475 3.485 -1.375 4.25 C-1.97225826 6.87793635 -2.52760474 8.75265987 -4 11 C-6.125 12.25 -6.125 12.25 -8 13 C-4 2 -4 2 0 0 Z " fill="#6D6D6D" transform="translate(417,568)"/>
<path d="M0 0 C1.37504799 2.75009598 0.6294275 3.96944052 -0.25 6.875 C-0.62898437 8.17050781 -0.62898437 8.17050781 -1.015625 9.4921875 C-2.02317157 12.05903233 -3.24900878 13.8850387 -5 16 C-4.35839688 10.86717502 -3.45687503 5.97051481 -2 1 C-1.34 0.67 -0.68 0.34 0 0 Z " fill="#6B6B6B" transform="translate(533,392)"/>
<path d="M0 0 C1 2 1 2 0.4375 5.375 C-1.2710015 9.68339508 -2.9981034 10.8250562 -7 13 C-6.731875 12.505 -6.46375 12.01 -6.1875 11.5 C-4.82597243 8.63362617 -3.80570203 5.70800758 -2.78125 2.70703125 C-2 1 -2 1 0 0 Z " fill="#686868" transform="translate(595,432)"/>
<path d="M0 0 C2.37287264 4.58755377 3.1181816 8.00911138 3.0625 13.1875 C3.05347656 14.27417969 3.04445313 15.36085938 3.03515625 16.48046875 C3.02355469 17.31191406 3.01195312 18.14335937 3 19 C2.67 19 2.34 19 2 19 C0.67611771 12.56971459 -0.24794402 6.5705166 0 0 Z " fill="#505050" transform="translate(544,300)"/>
<path d="M0 0 C5.40204077 1.30958564 9.08799755 5.43303964 12 10 C11.67 10.99 11.34 11.98 11 13 C10.37351562 12.28972656 9.74703125 11.57945312 9.1015625 10.84765625 C8.28429687 9.92855469 7.46703125 9.00945312 6.625 8.0625 C5.81289063 7.14597656 5.00078125 6.22945312 4.1640625 5.28515625 C2.21290653 2.96398605 2.21290653 2.96398605 0 2 C0 1.34 0 0.68 0 0 Z " fill="#6F6F6F" transform="translate(485,197)"/>
<path d="M0 0 C0 3.95564164 -1.40521394 5.10866696 -4 8 C-4.99 8.66 -5.98 9.32 -7 10 C-7.33 10.99 -7.66 11.98 -8 13 C-8.66 13 -9.32 13 -10 13 C-8.04643572 7.30210418 -4.98086349 3.37987165 0 0 Z " fill="#656565" transform="translate(519,553)"/>
<path d="M0 0 C0.33 0 0.66 0 1 0 C1.375 2.6875 1.375 2.6875 1 6 C-0.823983 8.06398076 -2.72763839 9.39041053 -5 11 C-4.46939601 6.48986609 -2.69113883 3.61621781 0 0 Z " fill="#565656" transform="translate(340,406)"/>
<path d="M0 0 C0 4.13997696 -2.16832917 6.45607031 -4.5 9.6875 C-4.92925781 10.29400391 -5.35851562 10.90050781 -5.80078125 11.52539062 C-6.86093138 13.02138026 -7.92965571 14.511287 -9 16 C-9.33 15.34 -9.66 14.68 -10 14 C-7.5049825 8.85402641 -3.54353969 4.45612252 0 0 Z " fill="#232323" transform="translate(406,296)"/>
<path d="M0 0 C0.33 0.99 0.66 1.98 1 3 C-0.78953185 3.83790789 -2.58169695 4.67019396 -4.375 5.5 C-5.87160156 6.19609375 -5.87160156 6.19609375 -7.3984375 6.90625 C-10 8 -10 8 -12 8 C-12 7.34 -12 6.68 -12 6 C-8.04 4.02 -4.08 2.04 0 0 Z " fill="#090909" transform="translate(283,41)"/>
<path d="M0 0 C4.74908547 2.80627778 7.19372222 5.25091453 10 10 C9.67 10.66 9.34 11.32 9 12 C7.49405319 10.38050958 5.99539332 8.75424026 4.5 7.125 C3.6646875 6.22007812 2.829375 5.31515625 1.96875 4.3828125 C0 2 0 2 0 0 Z " fill="#616161" transform="translate(321,654)"/>
<path d="M0 0 C0.66 0 1.32 0 2 0 C1.731875 0.61875 1.46375 1.2375 1.1875 1.875 C-0.4483787 6.17994393 -1.71271326 10.58031552 -3 15 C-3.33 15 -3.66 15 -4 15 C-4.68829114 6.39636076 -4.68829114 6.39636076 -2.125 2.4375 C-1.073125 1.2309375 -1.073125 1.2309375 0 0 Z " fill="#5E5E5E" transform="translate(640,604)"/>
<path d="M0 0 C0.33 0.99 0.66 1.98 1 3 C0.401875 3.53625 -0.19625 4.0725 -0.8125 4.625 C-3.21104383 7.2291333 -4.45343714 9.83657598 -6 13 C-6.99 13.495 -6.99 13.495 -8 14 C-7.46719784 9.77510398 -6.12321801 7.45919284 -3.4375 4.1875 C-2.47650391 3.00220703 -2.47650391 3.00220703 -1.49609375 1.79296875 C-1.00238281 1.20128906 -0.50867188 0.60960937 0 0 Z " fill="#7D7D7D" transform="translate(576,470)"/>
<path d="M0 0 C0.33 0.66 0.66 1.32 1 2 C0.01 2.495 0.01 2.495 -1 3 C-1.45375 3.78375 -1.9075 4.5675 -2.375 5.375 C-4.00850157 8.01373331 -5.43296314 9.31814826 -8 11 C-6.68206814 5.33289301 -4.51290803 3.33562767 0 0 Z " fill="#626262" transform="translate(492,466)"/>
<path d="M0 0 C1 3 1 3 -0.21484375 5.91796875 C-0.78332031 6.99691406 -1.35179687 8.07585937 -1.9375 9.1875 C-2.50339844 10.27417969 -3.06929688 11.36085938 -3.65234375 12.48046875 C-4.09707031 13.31191406 -4.54179687 14.14335937 -5 15 C-6.19568017 11.41295948 -5.43725845 10.11669923 -3.90234375 6.78515625 C-2.71981989 4.44570429 -1.40693323 2.21089507 0 0 Z " fill="#848484" transform="translate(451,248)"/>
<path d="M0 0 C0.68359375 1.671875 0.68359375 1.671875 1 4 C-0.21484375 6.578125 -0.21484375 6.578125 -1.9375 9.25 C-2.50339844 10.14203125 -3.06929688 11.0340625 -3.65234375 11.953125 C-4.09707031 12.62859375 -4.54179687 13.3040625 -5 14 C-5.33 13.34 -5.66 12.68 -6 12 C-4.78515625 9.1796875 -4.78515625 9.1796875 -3.0625 5.875 C-2.49660156 4.77929688 -1.93070312 3.68359375 -1.34765625 2.5546875 C-0.90292969 1.71164063 -0.45820313 0.86859375 0 0 Z " fill="#474747" transform="translate(450,245)"/>
<path d="M0 0 C1.16161779 2.86578759 0.9946154 4.01630163 0.00390625 7.015625 C-0.70958984 8.61664063 -0.70958984 8.61664063 -1.4375 10.25 C-1.91058594 11.32765625 -2.38367188 12.4053125 -2.87109375 13.515625 C-3.24363281 14.33546875 -3.61617188 15.1553125 -4 16 C-5.80501587 9.99187576 -2.78948509 5.32538063 0 0 Z " fill="#5F5F5F" transform="translate(456,232)"/>
<path d="M0 0 C0 3.77910478 -0.99703962 4.46106101 -3.5 7.1875 C-4.47453125 8.26064453 -4.47453125 8.26064453 -5.46875 9.35546875 C-5.9740625 9.89816406 -6.479375 10.44085938 -7 11 C-7 7.22089522 -6.00296038 6.53893899 -3.5 3.8125 C-2.8503125 3.09707031 -2.200625 2.38164062 -1.53125 1.64453125 C-1.0259375 1.10183594 -0.520625 0.55914062 0 0 Z " fill="#2E2E2E" transform="translate(421,269)"/>
<path d="M0 0 C0.78375 0.04125 1.5675 0.0825 2.375 0.125 C2.705 0.785 3.035 1.445 3.375 2.125 C2.570625 2.269375 1.76625 2.41375 0.9375 2.5625 C-1.54603706 2.86635249 -1.54603706 2.86635249 -2.625 4.125 C-2.85692865 5.63969448 -3.03715238 7.16254562 -3.1875 8.6875 C-3.27128906 9.51378906 -3.35507812 10.34007812 -3.44140625 11.19140625 C-3.50199219 11.82949219 -3.56257813 12.46757812 -3.625 13.125 C-3.955 13.125 -4.285 13.125 -4.625 13.125 C-4.67891993 11.33366022 -4.71775571 9.54186101 -4.75 7.75 C-4.77320313 6.75226563 -4.79640625 5.75453125 -4.8203125 4.7265625 C-4.54603402 1.07317311 -3.66648281 0.17459442 0 0 Z " fill="#717171" transform="translate(472.625,186.875)"/>
<path d="M0 0 C-4.5656849 3.04378993 -9.64705129 4.0267366 -15 5 C-12.77316753 2.34493051 -11.46541326 1.11882892 -8.0625 0.25 C-5.35312208 0.02882629 -2.71621404 -0.07988865 0 0 Z " fill="#474747" transform="translate(537,716)"/>
<path d="M0 0 C0 3.80345877 -1.13786331 4.77701015 -3.5 7.6875 C-4.47453125 8.89986328 -4.47453125 8.89986328 -5.46875 10.13671875 C-5.9740625 10.75160156 -6.479375 11.36648438 -7 12 C-7.33 11.34 -7.66 10.68 -8 10 C-7.071875 8.88625 -7.071875 8.88625 -6.125 7.75 C-4.00268086 5.18631971 -4.00268086 5.18631971 -2.875 2.75 C-2 1 -2 1 0 0 Z " fill="#676767" transform="translate(426,556)"/>
<path d="M0 0 C0.66 0.66 1.32 1.32 2 2 C0.71186658 2.83878455 -0.58063256 3.67086783 -1.875 4.5 C-2.59429687 4.9640625 -3.31359375 5.428125 -4.0546875 5.90625 C-6 7 -6 7 -8 7 C-6.5361389 2.60841671 -4.02168662 2.12052567 0 0 Z " fill="#070707" transform="translate(228,71)"/>
<path d="M0 0 C1.125 3.75 1.125 3.75 0 6 C-0.66 6 -1.32 6 -2 6 C-2.33 7.65 -2.66 9.3 -3 11 C-3.75 9.4375 -3.75 9.4375 -4 7 C-2.86915563 4.49713591 -1.47860484 2.32992278 0 0 Z " fill="#6C6C6C" transform="translate(497,455)"/>
<path d="M0 0 C0.99 0.33 1.98 0.66 3 1 C2.1875 3.4375 2.1875 3.4375 1 6 C0.01 6.33 -0.98 6.66 -2 7 C-2.125 4.625 -2.125 4.625 -2 2 C-1.34 1.34 -0.68 0.68 0 0 Z " fill="#292929" transform="translate(309,429)"/>
<path d="M0 0 C0.66 0.33 1.32 0.66 2 1 C-0.97 4.96 -0.97 4.96 -4 9 C-4.33 8.01 -4.66 7.02 -5 6 C-3.59554165 3.7363436 -1.8032087 1.9791315 0 0 Z " fill="#232323" transform="translate(393,314)"/>
<path d="M0 0 C0.8125 1.6875 0.8125 1.6875 1 4 C-1.1613627 6.51185394 -3.01962439 8.50981219 -6 10 C-5.34 8.35 -4.68 6.7 -4 5 C-3.34 5 -2.68 5 -2 5 C-1.34 3.35 -0.68 1.7 0 0 Z " fill="#525252" transform="translate(437,271)"/>
<path d="M0 0 C0.33 1.32 0.66 2.64 1 4 C0.360625 4.433125 -0.27875 4.86625 -0.9375 5.3125 C-3.26746003 6.91239177 -3.26746003 6.91239177 -4 10 C-4.66 10 -5.32 10 -6 10 C-4.6302836 6.00499382 -2.74277578 3.19990508 0 0 Z " fill="#585858" transform="translate(548,510)"/>
<path d="M0 0 C0.33 0.66 0.66 1.32 1 2 C-0.98 4.64 -2.96 7.28 -5 10 C-5.33 9.34 -5.66 8.68 -6 8 C-4.74516551 4.57772411 -2.6348519 2.45919511 0 0 Z " fill="#646464" transform="translate(396,602)"/>
<path d="M0 0 C0.66 0.66 1.32 1.32 2 2 C1.34 2 0.68 2 0 2 C-0.2475 2.804375 -0.495 3.60875 -0.75 4.4375 C-1.1625 5.283125 -1.575 6.12875 -2 7 C-3.32 7.33 -4.64 7.66 -6 8 C-4.02 5.36 -2.04 2.72 0 0 Z " fill="#080808" transform="translate(105,180)"/>
<path d="M0 0 C0.33 0.66 0.66 1.32 1 2 C-0.25 4.5625 -0.25 4.5625 -2 7 C-2.99 7.33 -3.98 7.66 -5 8 C-4.34 6.35 -3.68 4.7 -3 3 C-2.34 3 -1.68 3 -1 3 C-0.67 2.01 -0.34 1.02 0 0 Z " fill="#5A5A5A" transform="translate(620,645)"/>
<path d="M0 0 C0.33 1.32 0.66 2.64 1 4 C0.38125 4.433125 -0.2375 4.86625 -0.875 5.3125 C-3.2197245 6.99740483 -3.2197245 6.99740483 -5 10 C-4.49701212 5.59885603 -2.91227269 3.28804981 0 0 Z " fill="#535353" transform="translate(334,417)"/>
</svg>
